<svg id="Banner_header" data-name="Banner header" xmlns="http://www.w3.org/2000/svg" xmlns:xlink="http://www.w3.org/1999/xlink" width="600" height="304" viewBox="0 0 600 304">
  <defs>
    <clipPath id="clip-path">
      <rect id="Rectángulo_7211" data-name="Rectángulo 7211" width="48.151" height="68.582" fill="none"/>
    </clipPath>
    <clipPath id="clip-path-2">
      <rect id="Rectángulo_7211-2" data-name="Rectángulo 7211" width="37" height="52.7" fill="none"/>
    </clipPath>
    <clipPath id="clip-path-3">
      <rect id="Rectángulo_7211-3" data-name="Rectángulo 7211" width="18.312" height="26.082" fill="none"/>
    </clipPath>
    <clipPath id="clip-path-4">
      <rect id="Rectángulo_7574" data-name="Rectángulo 7574" width="213.725" height="193.284" fill="none"/>
    </clipPath>
    <clipPath id="clip-path-5">
      <rect id="Rectángulo_7520" data-name="Rectángulo 7520" width="213.725" height="193.283" fill="none"/>
    </clipPath>
    <clipPath id="clip-path-8">
      <path id="Trazado_11640" data-name="Trazado 11640" d="M1403.335,151.054a5,5,0,1,0,2.019-.427,5,5,0,0,0-2.019.427" transform="translate(-1400.344 -150.627)" fill="none"/>
    </clipPath>
    <radialGradient id="radial-gradient" cx="0.645" cy="0.349" r="0.446" gradientUnits="objectBoundingBox">
      <stop offset="0" stop-color="#6fc2e3"/>
      <stop offset="0.087" stop-color="#60b7dc"/>
      <stop offset="0.251" stop-color="#3a9ccc"/>
      <stop offset="0.327" stop-color="#278ec4"/>
      <stop offset="0.909" stop-color="#1d4993"/>
      <stop offset="0.999" stop-color="#1c3e8c"/>
      <stop offset="1" stop-color="#1c3e8c"/>
    </radialGradient>
    <clipPath id="clip-path-9">
      <path id="Trazado_11641" data-name="Trazado 11641" d="M1389.251,142.574h0c-5.229,2.305,4.961,12.279,14.826,8.779-10,.977-19.43-7.233-11.509-9.233q-.27-.01-.523-.01a7.016,7.016,0,0,0-2.792.463" transform="translate(-1387.831 -142.111)" fill="none"/>
    </clipPath>
    <linearGradient id="linear-gradient" x1="-10.055" y1="9.024" x2="-10.048" y2="9.024" gradientUnits="objectBoundingBox">
      <stop offset="0" stop-color="#9ca0a4"/>
      <stop offset="0.5" stop-color="#fff"/>
      <stop offset="1" stop-color="#94979a"/>
    </linearGradient>
    <clipPath id="clip-path-10">
      <rect id="Rectángulo_7648" data-name="Rectángulo 7648" width="185.457" height="33" fill="none"/>
    </clipPath>
  </defs>
  <path id="Trazado_12120" data-name="Trazado 12120" d="M0,0H600V240H0Z" transform="translate(0 56)" fill="#00c3ff"/>
  <rect id="Rectángulo_7116" data-name="Rectángulo 7116" width="600" height="56" fill="#0047ff"/>
  <circle id="Elipse_388" data-name="Elipse 388" cx="102" cy="102" r="102" transform="translate(70 76)" fill="#00a4ff"/>
  <text id="Recibiste_un_Pasa_Plata_exitoso" data-name="Recibiste un 
Pasa Plata
exitoso" transform="translate(32 158)" fill="#fff" font-size="28" font-family="MADETOMMY, MADE TOMMY"><tspan x="0" y="0">Recibiste un </tspan><tspan x="0" y="26">Pasa Plata</tspan><tspan x="0" y="52">exitoso</tspan></text>
  <g id="Grupo_10323" data-name="Grupo 10323" transform="matrix(0.809, 0.588, -0.588, 0.809, 295.205, 204.125)">
    <g id="Grupo_10322" data-name="Grupo 10322" clip-path="url(#clip-path)">
      <path id="Trazado_11208" data-name="Trazado 11208" d="M47.767,57.587A19.538,19.538,0,0,1,40.3,66.864l1.448,3.173a4.746,4.746,0,0,1,.214,3.812,5.448,5.448,0,0,1-6.543,2.985,4.748,4.748,0,0,1-2.739-2.661l-1.33-2.915a31.981,31.981,0,0,1-14.225,1.4,4.821,4.821,0,0,1-2.391-.864,5.583,5.583,0,0,1-1.579-2.177,5.758,5.758,0,0,1-.4-3.885,3.686,3.686,0,0,1,2.039-2.65,5.362,5.362,0,0,1,1.672-.451,12.932,12.932,0,0,1,2.448.055,26.293,26.293,0,0,0,6.318-.221,22.558,22.558,0,0,0,5.54-1.744,10.782,10.782,0,0,0,4.7-3.512A4.134,4.134,0,0,0,35.7,53a3.034,3.034,0,0,0-2.089-1.746,8.814,8.814,0,0,0-3.291-.18q-1.823.2-5.222.816a68.694,68.694,0,0,1-9.1,1.141,15.086,15.086,0,0,1-7.177-1.5,11.9,11.9,0,0,1-5.563-6.185,13.9,13.9,0,0,1-.478-10.658,19.505,19.505,0,0,1,7.281-9.422L8.579,22.023a4.723,4.723,0,0,1-.168-3.795,4.9,4.9,0,0,1,2.662-2.742,4.924,4.924,0,0,1,3.833-.259,4.74,4.74,0,0,1,2.741,2.659l1.39,3.047a30.161,30.161,0,0,1,12.352-.706,5.217,5.217,0,0,1,2.436.965,5.469,5.469,0,0,1,1.533,2.077,5.676,5.676,0,0,1,.372,3.9,3.784,3.784,0,0,1-2.073,2.665,4.711,4.711,0,0,1-1.607.421,20.926,20.926,0,0,1-2.513-.025c-.383-.036-1.215-.089-2.5-.154a18.677,18.677,0,0,0-3.928.225A15.88,15.88,0,0,0,19.1,31.543a8.9,8.9,0,0,0-4.151,3.421,4.327,4.327,0,0,0-.262,4.227,3.649,3.649,0,0,0,3.493,2.163,34.8,34.8,0,0,0,7.486-.912,60.492,60.492,0,0,1,8.932-1.26,14.443,14.443,0,0,1,7.113,1.53,12.288,12.288,0,0,1,5.572,6.3,13.567,13.567,0,0,1,.483,10.578" transform="translate(-1.203 -9.267)" fill="#000087"/>
      <path id="Trazado_11209" data-name="Trazado 11209" d="M38.361,76.04a5.676,5.676,0,0,1-4.394.283,5.49,5.49,0,0,1-3.163-3.05l-1.06-2.325a32.5,32.5,0,0,1-13.927,1.238,5.544,5.544,0,0,1-2.733-1.009,6.248,6.248,0,0,1-1.8-2.459,6.505,6.505,0,0,1-.448-4.372,4.4,4.4,0,0,1,2.45-3.144,6.12,6.12,0,0,1,1.9-.514,13.611,13.611,0,0,1,2.6.054,25.634,25.634,0,0,0,6.12-.213,21.905,21.905,0,0,0,5.358-1.689A10.145,10.145,0,0,0,33.646,55.6a3.408,3.408,0,0,0,.177-3.5,2.3,2.3,0,0,0-1.6-1.337A8.142,8.142,0,0,0,29.2,50.6c-1.194.132-2.933.4-5.175.809a68.945,68.945,0,0,1-9.2,1.152A15.889,15.889,0,0,1,7.3,50.991a12.667,12.667,0,0,1-5.92-6.548,14.691,14.691,0,0,1-.5-11.206,20.092,20.092,0,0,1,7.06-9.417L6.7,21.122a5.46,5.46,0,0,1-.185-4.37A5.635,5.635,0,0,1,9.563,13.6a5.661,5.661,0,0,1,4.393-.282A5.479,5.479,0,0,1,17.12,16.37l1.129,2.476a31.288,31.288,0,0,1,12.039-.563A5.989,5.989,0,0,1,33.081,19.4a6.213,6.213,0,0,1,1.75,2.353,6.42,6.42,0,0,1,.414,4.4A4.51,4.51,0,0,1,32.762,29.3a5.473,5.473,0,0,1-1.858.486,21.752,21.752,0,0,1-2.61-.024c-.261-.024-.89-.072-2.494-.154a18.023,18.023,0,0,0-3.772.217,15.228,15.228,0,0,0-3.821,1.186,8.225,8.225,0,0,0-3.82,3.124,3.6,3.6,0,0,0-.226,3.542A2.9,2.9,0,0,0,17,39.405a34.345,34.345,0,0,0,7.312-.9,61.487,61.487,0,0,1,9.043-1.274,15.237,15.237,0,0,1,7.476,1.605,13.057,13.057,0,0,1,5.921,6.655,14.345,14.345,0,0,1,.506,11.136,20.074,20.074,0,0,1-7.237,9.27l1.2,2.621a5.483,5.483,0,0,1,.23,4.387,5.668,5.668,0,0,1-3.091,3.133M13.9,62.552A2.953,2.953,0,0,0,12.272,64.7a4.993,4.993,0,0,0,.358,3.4A4.914,4.914,0,0,0,13.983,70a4.133,4.133,0,0,0,2.029.718,31.409,31.409,0,0,0,13.915-1.374l.624-.194,1.6,3.51a4.008,4.008,0,0,0,2.315,2.27,4.71,4.71,0,0,0,5.6-2.556,4,4,0,0,0-.2-3.236l-1.7-3.73.5-.355a18.909,18.909,0,0,0,7.2-8.922,12.912,12.912,0,0,0-.46-10.021,11.628,11.628,0,0,0-5.223-5.938,13.765,13.765,0,0,0-6.752-1.456,59.99,59.99,0,0,0-8.818,1.245,35.12,35.12,0,0,1-7.661.927,4.405,4.405,0,0,1-4.141-2.6,5.049,5.049,0,0,1,.3-4.913,9.656,9.656,0,0,1,4.48-3.718,16.7,16.7,0,0,1,4.2-1.3,19.557,19.557,0,0,1,4.087-.234c1.209.062,2.107.117,2.527.156a20.418,20.418,0,0,0,2.388.024,3.989,3.989,0,0,0,1.356-.356,3.058,3.058,0,0,0,1.664-2.18,4.908,4.908,0,0,0-.329-3.4,4.756,4.756,0,0,0-1.316-1.8,4.528,4.528,0,0,0-2.1-.815,29.551,29.551,0,0,0-12.035.689l-.611.171L15.77,16.986a4,4,0,0,0-2.317-2.269,4.175,4.175,0,0,0-3.274.235A4.144,4.144,0,0,0,7.9,17.288a3.972,3.972,0,0,0,.151,3.219L9.781,24.3l-.488.357a18.856,18.856,0,0,0-7.017,9.064,13.251,13.251,0,0,0,.451,10.108,11.245,11.245,0,0,0,5.2,5.823,14.419,14.419,0,0,0,6.829,1.431,68.329,68.329,0,0,0,9-1.13c2.276-.411,4.049-.687,5.273-.823a9.591,9.591,0,0,1,3.563.2,3.75,3.75,0,0,1,2.574,2.156,4.851,4.851,0,0,1-.284,4.924,11.528,11.528,0,0,1-5.012,3.782,23.377,23.377,0,0,1-5.722,1.8,27.124,27.124,0,0,1-6.5.229,12.347,12.347,0,0,0-2.317-.057,4.639,4.639,0,0,0-1.442.388" transform="translate(0 -8.058)" fill="#000087"/>
      <path id="Trazado_11210" data-name="Trazado 11210" d="M47.767,44.585A19.538,19.538,0,0,1,40.3,53.862l1.448,3.173a4.747,4.747,0,0,1,.214,3.812,5.448,5.448,0,0,1-6.543,2.985,4.748,4.748,0,0,1-2.739-2.661l-1.33-2.915a31.981,31.981,0,0,1-14.225,1.4,4.821,4.821,0,0,1-2.391-.864,5.583,5.583,0,0,1-1.579-2.177,5.758,5.758,0,0,1-.4-3.885,3.686,3.686,0,0,1,2.039-2.65,5.362,5.362,0,0,1,1.672-.451,12.933,12.933,0,0,1,2.448.055,26.292,26.292,0,0,0,6.318-.221,22.557,22.557,0,0,0,5.54-1.744,10.782,10.782,0,0,0,4.7-3.512A4.134,4.134,0,0,0,35.7,40a3.034,3.034,0,0,0-2.089-1.746,8.814,8.814,0,0,0-3.291-.18q-1.823.2-5.222.816a68.695,68.695,0,0,1-9.1,1.141,15.086,15.086,0,0,1-7.177-1.5,11.9,11.9,0,0,1-5.563-6.185,13.9,13.9,0,0,1-.478-10.658,19.5,19.5,0,0,1,7.281-9.422L8.579,9.021a4.723,4.723,0,0,1-.168-3.795,4.894,4.894,0,0,1,2.662-2.742,4.924,4.924,0,0,1,3.833-.259,4.74,4.74,0,0,1,2.741,2.659l1.39,3.047a30.161,30.161,0,0,1,12.352-.706,5.217,5.217,0,0,1,2.436.965,5.469,5.469,0,0,1,1.533,2.077,5.676,5.676,0,0,1,.372,3.9,3.784,3.784,0,0,1-2.073,2.665,4.711,4.711,0,0,1-1.607.421,20.924,20.924,0,0,1-2.513-.025c-.383-.036-1.215-.089-2.5-.154a18.677,18.677,0,0,0-3.928.225A15.88,15.88,0,0,0,19.1,18.541a8.9,8.9,0,0,0-4.151,3.421,4.327,4.327,0,0,0-.262,4.227,3.649,3.649,0,0,0,3.493,2.163,34.8,34.8,0,0,0,7.486-.912A60.493,60.493,0,0,1,34.6,26.18a14.443,14.443,0,0,1,7.113,1.53,12.288,12.288,0,0,1,5.572,6.3,13.567,13.567,0,0,1,.483,10.578" transform="translate(-1.203 -1.209)" fill="#ffb700"/>
      <path id="Trazado_11211" data-name="Trazado 11211" d="M38.361,63.037a5.676,5.676,0,0,1-4.394.283A5.49,5.49,0,0,1,30.8,60.27l-1.06-2.325a32.5,32.5,0,0,1-13.927,1.238,5.544,5.544,0,0,1-2.733-1.009,6.248,6.248,0,0,1-1.8-2.459,6.505,6.505,0,0,1-.448-4.372,4.4,4.4,0,0,1,2.45-3.144,6.12,6.12,0,0,1,1.9-.514,13.611,13.611,0,0,1,2.6.054,25.633,25.633,0,0,0,6.12-.213,21.905,21.905,0,0,0,5.358-1.689A10.145,10.145,0,0,0,33.646,42.6a3.408,3.408,0,0,0,.177-3.5,2.3,2.3,0,0,0-1.6-1.337A8.142,8.142,0,0,0,29.2,37.6c-1.194.132-2.933.4-5.175.809a68.944,68.944,0,0,1-9.2,1.152A15.889,15.889,0,0,1,7.3,37.988a12.667,12.667,0,0,1-5.92-6.548,14.691,14.691,0,0,1-.5-11.206,20.092,20.092,0,0,1,7.06-9.417L6.7,8.119a5.46,5.46,0,0,1-.185-4.37A5.635,5.635,0,0,1,9.563.6,5.661,5.661,0,0,1,13.956.318,5.48,5.48,0,0,1,17.12,3.367l1.129,2.476A31.288,31.288,0,0,1,30.288,5.28,5.989,5.989,0,0,1,33.081,6.4a6.213,6.213,0,0,1,1.75,2.353,6.42,6.42,0,0,1,.414,4.4A4.51,4.51,0,0,1,32.762,16.3a5.473,5.473,0,0,1-1.858.486,21.753,21.753,0,0,1-2.61-.024c-.261-.024-.89-.072-2.494-.154a18.023,18.023,0,0,0-3.772.217,15.228,15.228,0,0,0-3.821,1.186,8.225,8.225,0,0,0-3.82,3.124,3.6,3.6,0,0,0-.226,3.542A2.9,2.9,0,0,0,17,26.4a34.345,34.345,0,0,0,7.312-.9,61.485,61.485,0,0,1,9.043-1.274,15.237,15.237,0,0,1,7.476,1.605,13.057,13.057,0,0,1,5.921,6.655,14.345,14.345,0,0,1,.506,11.136,20.074,20.074,0,0,1-7.237,9.27l1.2,2.621a5.483,5.483,0,0,1,.23,4.387,5.668,5.668,0,0,1-3.091,3.133M13.9,49.549A2.953,2.953,0,0,0,12.272,51.7a4.993,4.993,0,0,0,.358,3.4A4.914,4.914,0,0,0,13.983,57a4.133,4.133,0,0,0,2.029.718,31.409,31.409,0,0,0,13.915-1.374l.624-.194,1.6,3.51a4.008,4.008,0,0,0,2.315,2.27,4.71,4.71,0,0,0,5.6-2.556,4,4,0,0,0-.2-3.236l-1.7-3.73.5-.355a18.909,18.909,0,0,0,7.2-8.922,12.912,12.912,0,0,0-.46-10.021,11.628,11.628,0,0,0-5.223-5.938,13.765,13.765,0,0,0-6.752-1.456,59.989,59.989,0,0,0-8.818,1.245,35.12,35.12,0,0,1-7.661.927,4.405,4.405,0,0,1-4.141-2.6,5.05,5.05,0,0,1,.3-4.914,9.658,9.658,0,0,1,4.48-3.718,16.7,16.7,0,0,1,4.2-1.3,19.558,19.558,0,0,1,4.087-.234c1.209.062,2.107.117,2.527.156a20.419,20.419,0,0,0,2.388.024,3.989,3.989,0,0,0,1.356-.356,3.058,3.058,0,0,0,1.664-2.18,4.908,4.908,0,0,0-.329-3.4,4.756,4.756,0,0,0-1.316-1.8,4.528,4.528,0,0,0-2.1-.815,29.551,29.551,0,0,0-12.035.689l-.611.171L15.77,3.983a4,4,0,0,0-2.317-2.269,4.175,4.175,0,0,0-3.274.235A4.144,4.144,0,0,0,7.9,4.285,3.972,3.972,0,0,0,8.052,7.5L9.781,11.3l-.488.357a18.856,18.856,0,0,0-7.017,9.064,13.251,13.251,0,0,0,.451,10.108,11.245,11.245,0,0,0,5.2,5.823,14.419,14.419,0,0,0,6.829,1.431,68.33,68.33,0,0,0,9-1.13c2.276-.411,4.049-.687,5.273-.823a9.591,9.591,0,0,1,3.563.2,3.75,3.75,0,0,1,2.574,2.156,4.851,4.851,0,0,1-.284,4.924,11.528,11.528,0,0,1-5.012,3.782,23.377,23.377,0,0,1-5.722,1.8,27.124,27.124,0,0,1-6.5.229,12.346,12.346,0,0,0-2.317-.057,4.639,4.639,0,0,0-1.442.388" transform="translate(0 0)" fill="#000087"/>
    </g>
  </g>
  <g id="Grupo_10325" data-name="Grupo 10325" transform="matrix(1, 0.017, -0.017, 1, 85.463, 69.681)">
    <g id="Grupo_10322-2" data-name="Grupo 10322" clip-path="url(#clip-path-2)">
      <path id="Trazado_11208-2" data-name="Trazado 11208" d="M37.155,47.714a15.014,15.014,0,0,1-5.737,7.128L32.53,57.28a3.647,3.647,0,0,1,.164,2.929A4.186,4.186,0,0,1,27.667,62.5a3.648,3.648,0,0,1-2.1-2.044l-1.022-2.24A24.575,24.575,0,0,1,13.61,59.3a3.7,3.7,0,0,1-1.837-.664,4.29,4.29,0,0,1-1.213-1.673,4.424,4.424,0,0,1-.31-2.985,2.833,2.833,0,0,1,1.567-2.036,4.12,4.12,0,0,1,1.285-.347,9.937,9.937,0,0,1,1.881.042,20.2,20.2,0,0,0,4.855-.169,17.334,17.334,0,0,0,4.257-1.34,8.285,8.285,0,0,0,3.61-2.7,3.177,3.177,0,0,0,.177-3.237,2.332,2.332,0,0,0-1.606-1.342,6.773,6.773,0,0,0-2.529-.138q-1.4.155-4.012.627a52.787,52.787,0,0,1-7,.877,11.592,11.592,0,0,1-5.515-1.154A9.141,9.141,0,0,1,2.95,38.305a10.685,10.685,0,0,1-.367-8.189,14.988,14.988,0,0,1,5.6-7.24L7.042,20.385a3.629,3.629,0,0,1-.129-2.916,3.762,3.762,0,0,1,2.045-2.107,3.784,3.784,0,0,1,2.945-.2,3.642,3.642,0,0,1,2.106,2.043l1.068,2.341A23.176,23.176,0,0,1,24.569,19a4.009,4.009,0,0,1,1.872.741,4.2,4.2,0,0,1,1.178,1.6,4.361,4.361,0,0,1,.285,3,2.908,2.908,0,0,1-1.593,2.048,3.62,3.62,0,0,1-1.235.323,16.08,16.08,0,0,1-1.931-.019c-.294-.027-.934-.068-1.918-.118a14.352,14.352,0,0,0-3.018.173,12.2,12.2,0,0,0-3.082.956,6.84,6.84,0,0,0-3.19,2.629,3.325,3.325,0,0,0-.2,3.248A2.8,2.8,0,0,0,14.42,35.24a26.741,26.741,0,0,0,5.752-.7,46.484,46.484,0,0,1,6.863-.968A11.1,11.1,0,0,1,32.5,34.747a9.442,9.442,0,0,1,4.281,4.838,10.425,10.425,0,0,1,.371,8.129" transform="translate(-1.374 -10.583)" fill="#000087"/>
      <path id="Trazado_11209-2" data-name="Trazado 11209" d="M29.477,61.442a4.362,4.362,0,0,1-3.377.218,4.219,4.219,0,0,1-2.43-2.344l-.815-1.786a24.971,24.971,0,0,1-10.7.951,4.26,4.26,0,0,1-2.1-.775,4.8,4.8,0,0,1-1.386-1.889,5,5,0,0,1-.344-3.36,3.382,3.382,0,0,1,1.883-2.416,4.7,4.7,0,0,1,1.462-.395,10.459,10.459,0,0,1,2,.041,19.7,19.7,0,0,0,4.7-.163,16.832,16.832,0,0,0,4.117-1.3,7.8,7.8,0,0,0,3.37-2.491,2.619,2.619,0,0,0,.136-2.689,1.768,1.768,0,0,0-1.231-1.028,6.256,6.256,0,0,0-2.319-.123c-.917.1-2.254.311-3.977.622a52.979,52.979,0,0,1-7.073.885,12.21,12.21,0,0,1-5.782-1.208,9.734,9.734,0,0,1-4.549-5.032,11.289,11.289,0,0,1-.388-8.611A15.439,15.439,0,0,1,6.1,21.315L5.15,19.242a4.2,4.2,0,0,1-.142-3.358,4.33,4.33,0,0,1,2.341-2.42,4.35,4.35,0,0,1,3.375-.217,4.211,4.211,0,0,1,2.431,2.343l.868,1.9a24.042,24.042,0,0,1,9.251-.432,4.6,4.6,0,0,1,2.146.857,4.774,4.774,0,0,1,1.345,1.808,4.933,4.933,0,0,1,.318,3.378,3.466,3.466,0,0,1-1.908,2.421,4.205,4.205,0,0,1-1.428.373,16.715,16.715,0,0,1-2.006-.018c-.2-.018-.684-.056-1.917-.118a13.85,13.85,0,0,0-2.9.167,11.7,11.7,0,0,0-2.936.911,6.32,6.32,0,0,0-2.935,2.4,2.763,2.763,0,0,0-.174,2.721,2.231,2.231,0,0,0,2.185,1.329,26.391,26.391,0,0,0,5.619-.69,47.248,47.248,0,0,1,6.949-.979,11.709,11.709,0,0,1,5.744,1.233,10.033,10.033,0,0,1,4.55,5.114,11.023,11.023,0,0,1,.389,8.557,15.425,15.425,0,0,1-5.561,7.123l.919,2.014a4.213,4.213,0,0,1,.177,3.371,4.355,4.355,0,0,1-2.376,2.407M10.68,51.077a2.269,2.269,0,0,0-1.25,1.654A3.837,3.837,0,0,0,9.7,55.343a3.776,3.776,0,0,0,1.04,1.456,3.176,3.176,0,0,0,1.559.552A24.135,24.135,0,0,0,23,56.3l.48-.149,1.23,2.7a3.08,3.08,0,0,0,1.779,1.744,3.619,3.619,0,0,0,4.3-1.964,3.077,3.077,0,0,0-.151-2.486l-1.308-2.866L29.715,53a14.53,14.53,0,0,0,5.53-6.856,9.922,9.922,0,0,0-.353-7.7,8.935,8.935,0,0,0-4.014-4.563,10.577,10.577,0,0,0-5.189-1.119,46.1,46.1,0,0,0-6.776.957,26.987,26.987,0,0,1-5.887.712,3.385,3.385,0,0,1-3.182-2,3.88,3.88,0,0,1,.23-3.775A7.42,7.42,0,0,1,13.518,25.8a12.836,12.836,0,0,1,3.225-1,15.028,15.028,0,0,1,3.14-.18c.929.047,1.619.09,1.942.12a15.689,15.689,0,0,0,1.835.018,3.065,3.065,0,0,0,1.042-.274,2.35,2.35,0,0,0,1.279-1.675,3.772,3.772,0,0,0-.253-2.614,3.655,3.655,0,0,0-1.012-1.385,3.479,3.479,0,0,0-1.61-.626,22.708,22.708,0,0,0-9.248.529l-.47.131-1.27-2.785a3.072,3.072,0,0,0-1.781-1.743,3.208,3.208,0,0,0-2.516.181A3.185,3.185,0,0,0,6.071,16.3a3.053,3.053,0,0,0,.116,2.473l1.329,2.913-.375.274a14.49,14.49,0,0,0-5.392,6.965A10.182,10.182,0,0,0,2.1,36.689a8.641,8.641,0,0,0,4,4.474,11.08,11.08,0,0,0,5.248,1.1,52.506,52.506,0,0,0,6.917-.868c1.749-.316,3.112-.528,4.052-.632a7.37,7.37,0,0,1,2.738.154,2.882,2.882,0,0,1,1.978,1.657,3.728,3.728,0,0,1-.218,3.784,8.858,8.858,0,0,1-3.852,2.906,17.963,17.963,0,0,1-4.4,1.384,20.843,20.843,0,0,1-4.992.176,9.487,9.487,0,0,0-1.781-.044,3.565,3.565,0,0,0-1.108.3" transform="translate(0 -9.203)" fill="#000087"/>
      <path id="Trazado_11210-2" data-name="Trazado 11210" d="M37.155,34.712a15.014,15.014,0,0,1-5.737,7.128l1.112,2.438a3.647,3.647,0,0,1,.164,2.929A4.186,4.186,0,0,1,27.667,49.5a3.648,3.648,0,0,1-2.1-2.044l-1.022-2.24A24.575,24.575,0,0,1,13.61,46.294a3.7,3.7,0,0,1-1.837-.664,4.29,4.29,0,0,1-1.213-1.673,4.424,4.424,0,0,1-.31-2.985,2.833,2.833,0,0,1,1.567-2.036A4.12,4.12,0,0,1,13.1,38.59a9.938,9.938,0,0,1,1.881.042,20.2,20.2,0,0,0,4.855-.169,17.334,17.334,0,0,0,4.257-1.34,8.285,8.285,0,0,0,3.61-2.7,3.177,3.177,0,0,0,.177-3.237,2.332,2.332,0,0,0-1.606-1.342,6.773,6.773,0,0,0-2.529-.138q-1.4.155-4.012.627a52.787,52.787,0,0,1-7,.877,11.592,11.592,0,0,1-5.515-1.154A9.141,9.141,0,0,1,2.95,25.3a10.685,10.685,0,0,1-.367-8.189,14.987,14.987,0,0,1,5.6-7.24L7.042,7.383a3.629,3.629,0,0,1-.129-2.916A3.761,3.761,0,0,1,8.958,2.36a3.784,3.784,0,0,1,2.945-.2A3.642,3.642,0,0,1,14.01,4.2l1.068,2.341A23.176,23.176,0,0,1,24.569,6a4.009,4.009,0,0,1,1.872.741,4.2,4.2,0,0,1,1.178,1.6,4.361,4.361,0,0,1,.285,3,2.908,2.908,0,0,1-1.593,2.048,3.62,3.62,0,0,1-1.235.323,16.079,16.079,0,0,1-1.931-.019c-.294-.027-.934-.068-1.918-.118a14.352,14.352,0,0,0-3.018.173,12.2,12.2,0,0,0-3.082.956,6.84,6.84,0,0,0-3.19,2.629,3.325,3.325,0,0,0-.2,3.248,2.8,2.8,0,0,0,2.684,1.662,26.741,26.741,0,0,0,5.752-.7,46.485,46.485,0,0,1,6.863-.968A11.1,11.1,0,0,1,32.5,21.745a9.442,9.442,0,0,1,4.281,4.838,10.425,10.425,0,0,1,.371,8.129" transform="translate(-1.374 -1.38)" fill="#ffb700"/>
      <path id="Trazado_11211-2" data-name="Trazado 11211" d="M29.477,48.439a4.362,4.362,0,0,1-3.377.218,4.219,4.219,0,0,1-2.43-2.344l-.815-1.786a24.971,24.971,0,0,1-10.7.951,4.26,4.26,0,0,1-2.1-.775,4.8,4.8,0,0,1-1.386-1.889,5,5,0,0,1-.344-3.36,3.382,3.382,0,0,1,1.883-2.416,4.7,4.7,0,0,1,1.462-.395,10.459,10.459,0,0,1,2,.041,19.7,19.7,0,0,0,4.7-.163,16.833,16.833,0,0,0,4.117-1.3,7.8,7.8,0,0,0,3.37-2.491,2.619,2.619,0,0,0,.136-2.689,1.768,1.768,0,0,0-1.231-1.028,6.256,6.256,0,0,0-2.319-.123c-.917.1-2.254.311-3.977.622a52.979,52.979,0,0,1-7.073.885,12.21,12.21,0,0,1-5.782-1.208,9.734,9.734,0,0,1-4.549-5.032,11.289,11.289,0,0,1-.388-8.611A15.439,15.439,0,0,1,6.1,8.312L5.15,6.239a4.2,4.2,0,0,1-.142-3.358A4.33,4.33,0,0,1,7.349.461,4.35,4.35,0,0,1,10.724.245a4.211,4.211,0,0,1,2.431,2.343l.868,1.9a24.042,24.042,0,0,1,9.251-.432,4.6,4.6,0,0,1,2.146.857,4.774,4.774,0,0,1,1.345,1.808,4.933,4.933,0,0,1,.318,3.378,3.466,3.466,0,0,1-1.908,2.421,4.205,4.205,0,0,1-1.428.373,16.716,16.716,0,0,1-2.006-.018c-.2-.018-.684-.056-1.917-.118a13.85,13.85,0,0,0-2.9.167,11.7,11.7,0,0,0-2.936.911,6.32,6.32,0,0,0-2.935,2.4,2.763,2.763,0,0,0-.174,2.721,2.231,2.231,0,0,0,2.185,1.329,26.391,26.391,0,0,0,5.619-.69,47.247,47.247,0,0,1,6.949-.979,11.709,11.709,0,0,1,5.744,1.233,10.033,10.033,0,0,1,4.55,5.114,11.023,11.023,0,0,1,.389,8.557,15.425,15.425,0,0,1-5.561,7.123l.919,2.014a4.213,4.213,0,0,1,.177,3.371,4.355,4.355,0,0,1-2.376,2.407M10.68,38.074a2.269,2.269,0,0,0-1.25,1.654A3.837,3.837,0,0,0,9.7,42.34a3.776,3.776,0,0,0,1.04,1.456,3.176,3.176,0,0,0,1.559.552A24.135,24.135,0,0,0,23,43.292l.48-.149,1.23,2.7a3.08,3.08,0,0,0,1.779,1.744,3.619,3.619,0,0,0,4.3-1.964,3.077,3.077,0,0,0-.151-2.486l-1.308-2.866L29.715,40a14.53,14.53,0,0,0,5.53-6.856,9.922,9.922,0,0,0-.353-7.7,8.935,8.935,0,0,0-4.014-4.563,10.577,10.577,0,0,0-5.189-1.119,46.1,46.1,0,0,0-6.776.957,26.987,26.987,0,0,1-5.887.712,3.385,3.385,0,0,1-3.182-2,3.88,3.88,0,0,1,.23-3.776A7.421,7.421,0,0,1,13.518,12.8a12.836,12.836,0,0,1,3.225-1,15.028,15.028,0,0,1,3.14-.18c.929.047,1.619.09,1.942.12a15.69,15.69,0,0,0,1.835.018,3.065,3.065,0,0,0,1.042-.274A2.35,2.35,0,0,0,25.981,9.81,3.772,3.772,0,0,0,25.728,7.2a3.655,3.655,0,0,0-1.012-1.385,3.479,3.479,0,0,0-1.61-.626,22.708,22.708,0,0,0-9.248.529l-.47.131L12.118,3.06a3.072,3.072,0,0,0-1.781-1.743A3.208,3.208,0,0,0,7.822,1.5,3.185,3.185,0,0,0,6.071,3.293a3.053,3.053,0,0,0,.116,2.473L7.516,8.679l-.375.274a14.49,14.49,0,0,0-5.392,6.965A10.182,10.182,0,0,0,2.1,23.686a8.641,8.641,0,0,0,4,4.474,11.08,11.08,0,0,0,5.248,1.1,52.506,52.506,0,0,0,6.917-.868c1.749-.316,3.112-.528,4.052-.632a7.37,7.37,0,0,1,2.738.154,2.882,2.882,0,0,1,1.978,1.657,3.728,3.728,0,0,1-.218,3.784,8.858,8.858,0,0,1-3.852,2.906,17.963,17.963,0,0,1-4.4,1.384,20.843,20.843,0,0,1-4.992.176,9.487,9.487,0,0,0-1.781-.044,3.565,3.565,0,0,0-1.108.3" transform="translate(0 0)" fill="#000087"/>
    </g>
  </g>
  <g id="Grupo_10324" data-name="Grupo 10324" transform="matrix(0.799, 0.602, -0.602, 0.799, 51.064, 224.73)">
    <g id="Grupo_10322-3" data-name="Grupo 10322" clip-path="url(#clip-path-3)">
      <path id="Trazado_11208-3" data-name="Trazado 11208" d="M19.369,31.167a7.431,7.431,0,0,1-2.839,3.528L17.08,35.9a1.8,1.8,0,0,1,.081,1.45,2.072,2.072,0,0,1-2.488,1.135,1.806,1.806,0,0,1-1.041-1.012l-.506-1.108a12.163,12.163,0,0,1-5.41.533,1.834,1.834,0,0,1-.909-.329,2.123,2.123,0,0,1-.6-.828,2.19,2.19,0,0,1-.153-1.477,1.4,1.4,0,0,1,.775-1.008,2.039,2.039,0,0,1,.636-.172,4.918,4.918,0,0,1,.931.021,10,10,0,0,0,2.4-.084A8.579,8.579,0,0,0,12.9,32.36a4.1,4.1,0,0,0,1.787-1.336,1.572,1.572,0,0,0,.088-1.6,1.154,1.154,0,0,0-.795-.664,3.352,3.352,0,0,0-1.252-.068q-.693.077-1.986.31a26.125,26.125,0,0,1-3.462.434,5.737,5.737,0,0,1-2.729-.571A4.524,4.524,0,0,1,2.44,26.51a5.288,5.288,0,0,1-.182-4.053,7.418,7.418,0,0,1,2.769-3.583l-.562-1.233A1.8,1.8,0,0,1,4.4,16.2a1.862,1.862,0,0,1,1.012-1.043,1.873,1.873,0,0,1,1.458-.1,1.8,1.8,0,0,1,1.042,1.011l.529,1.159a11.47,11.47,0,0,1,4.7-.269,1.984,1.984,0,0,1,.927.367,2.08,2.08,0,0,1,.583.79,2.158,2.158,0,0,1,.141,1.483A1.439,1.439,0,0,1,14,20.611a1.792,1.792,0,0,1-.611.16,7.958,7.958,0,0,1-.956-.009c-.145-.014-.462-.034-.949-.059a7.1,7.1,0,0,0-1.494.086,6.039,6.039,0,0,0-1.525.473,3.385,3.385,0,0,0-1.579,1.3,1.646,1.646,0,0,0-.1,1.607,1.388,1.388,0,0,0,1.328.823,13.235,13.235,0,0,0,2.847-.347,23.006,23.006,0,0,1,3.4-.479,5.493,5.493,0,0,1,2.705.582,4.673,4.673,0,0,1,2.119,2.395,5.16,5.16,0,0,1,.184,4.023" transform="translate(-1.66 -12.79)" fill="#000087"/>
      <path id="Trazado_11209-3" data-name="Trazado 11209" d="M14.589,36.976a2.159,2.159,0,0,1-1.671.108,2.088,2.088,0,0,1-1.2-1.16l-.4-.884a12.358,12.358,0,0,1-5.3.471,2.108,2.108,0,0,1-1.039-.384,2.376,2.376,0,0,1-.686-.935,2.474,2.474,0,0,1-.17-1.663,1.674,1.674,0,0,1,.932-1.2,2.328,2.328,0,0,1,.724-.2,5.176,5.176,0,0,1,.988.021,9.749,9.749,0,0,0,2.328-.081,8.331,8.331,0,0,0,2.038-.642A3.858,3.858,0,0,0,12.8,29.2a1.3,1.3,0,0,0,.067-1.331.875.875,0,0,0-.609-.509,3.1,3.1,0,0,0-1.148-.061c-.454.05-1.116.154-1.968.308a26.22,26.22,0,0,1-3.5.438,6.043,6.043,0,0,1-2.862-.6A4.817,4.817,0,0,1,.524,24.96,5.587,5.587,0,0,1,.332,20.7a7.641,7.641,0,0,1,2.685-3.581l-.468-1.026a2.076,2.076,0,0,1-.07-1.662,2.143,2.143,0,0,1,1.158-1.2,2.153,2.153,0,0,1,1.671-.107,2.084,2.084,0,0,1,1.2,1.159l.429.942a11.9,11.9,0,0,1,4.578-.214,2.278,2.278,0,0,1,1.062.424,2.363,2.363,0,0,1,.665.895A2.442,2.442,0,0,1,13.4,18a1.715,1.715,0,0,1-.944,1.2,2.081,2.081,0,0,1-.707.185,8.273,8.273,0,0,1-.993-.009c-.1-.009-.339-.027-.949-.059a6.854,6.854,0,0,0-1.435.083,5.791,5.791,0,0,0-1.453.451,3.128,3.128,0,0,0-1.453,1.188,1.367,1.367,0,0,0-.086,1.347,1.1,1.1,0,0,0,1.082.658A13.062,13.062,0,0,0,9.248,22.7a23.384,23.384,0,0,1,3.439-.484,5.8,5.8,0,0,1,2.843.61,4.966,4.966,0,0,1,2.252,2.531,5.456,5.456,0,0,1,.192,4.235,7.634,7.634,0,0,1-2.752,3.525l.455,1a2.085,2.085,0,0,1,.088,1.668,2.156,2.156,0,0,1-1.176,1.191m-9.3-5.13a1.123,1.123,0,0,0-.619.819A1.9,1.9,0,0,0,4.8,33.958a1.869,1.869,0,0,0,.515.721,1.572,1.572,0,0,0,.772.273,11.945,11.945,0,0,0,5.292-.522l.237-.074.609,1.335a1.524,1.524,0,0,0,.881.863,1.791,1.791,0,0,0,2.13-.972,1.523,1.523,0,0,0-.075-1.23l-.647-1.419.19-.135A7.191,7.191,0,0,0,17.444,29.4a4.91,4.91,0,0,0-.175-3.811,4.422,4.422,0,0,0-1.987-2.258,5.235,5.235,0,0,0-2.568-.554,22.814,22.814,0,0,0-3.353.474,13.356,13.356,0,0,1-2.914.353,1.675,1.675,0,0,1-1.575-.988,1.92,1.92,0,0,1,.114-1.869,3.672,3.672,0,0,1,1.7-1.414,6.353,6.353,0,0,1,1.6-.495,7.438,7.438,0,0,1,1.554-.089c.46.023.8.045.961.059a7.765,7.765,0,0,0,.908.009,1.517,1.517,0,0,0,.516-.135,1.163,1.163,0,0,0,.633-.829,1.867,1.867,0,0,0-.125-1.294,1.809,1.809,0,0,0-.5-.685,1.722,1.722,0,0,0-.8-.31,11.239,11.239,0,0,0-4.577.262l-.232.065L6,14.517a1.521,1.521,0,0,0-.881-.863,1.588,1.588,0,0,0-1.245.09,1.576,1.576,0,0,0-.866.888,1.511,1.511,0,0,0,.057,1.224L3.72,17.3l-.186.136A7.171,7.171,0,0,0,.866,20.881a5.039,5.039,0,0,0,.172,3.844A4.277,4.277,0,0,0,3.017,26.94a5.484,5.484,0,0,0,2.6.544,25.986,25.986,0,0,0,3.424-.43c.865-.156,1.54-.261,2.005-.313a3.647,3.647,0,0,1,1.355.076,1.426,1.426,0,0,1,.979.82,1.845,1.845,0,0,1-.108,1.873,4.384,4.384,0,0,1-1.906,1.438,8.89,8.89,0,0,1-2.176.685,10.316,10.316,0,0,1-2.471.087,4.7,4.7,0,0,0-.881-.022,1.764,1.764,0,0,0-.548.148" transform="translate(0 -11.122)" fill="#000087"/>
      <path id="Trazado_11210-3" data-name="Trazado 11210" d="M19.369,18.165a7.431,7.431,0,0,1-2.839,3.528L17.08,22.9a1.805,1.805,0,0,1,.081,1.45,2.072,2.072,0,0,1-2.488,1.135,1.806,1.806,0,0,1-1.041-1.012l-.506-1.108a12.163,12.163,0,0,1-5.41.533,1.834,1.834,0,0,1-.909-.329,2.123,2.123,0,0,1-.6-.828,2.19,2.19,0,0,1-.153-1.477,1.4,1.4,0,0,1,.775-1.008,2.039,2.039,0,0,1,.636-.172A4.918,4.918,0,0,1,8.4,20.1a10,10,0,0,0,2.4-.084,8.579,8.579,0,0,0,2.107-.663,4.1,4.1,0,0,0,1.787-1.336,1.572,1.572,0,0,0,.088-1.6,1.154,1.154,0,0,0-.795-.664,3.352,3.352,0,0,0-1.252-.068q-.693.077-1.986.31a26.125,26.125,0,0,1-3.462.434,5.737,5.737,0,0,1-2.729-.571A4.524,4.524,0,0,1,2.44,13.508a5.288,5.288,0,0,1-.182-4.053A7.417,7.417,0,0,1,5.028,5.872L4.465,4.639A1.8,1.8,0,0,1,4.4,3.2,1.861,1.861,0,0,1,5.414,2.153a1.873,1.873,0,0,1,1.458-.1A1.8,1.8,0,0,1,7.914,3.066l.529,1.159a11.47,11.47,0,0,1,4.7-.269,1.984,1.984,0,0,1,.927.367,2.08,2.08,0,0,1,.583.79A2.158,2.158,0,0,1,14.791,6.6,1.439,1.439,0,0,1,14,7.609a1.792,1.792,0,0,1-.611.16,7.958,7.958,0,0,1-.956-.009c-.145-.014-.462-.034-.949-.059a7.1,7.1,0,0,0-1.494.086,6.039,6.039,0,0,0-1.525.473,3.385,3.385,0,0,0-1.579,1.3,1.646,1.646,0,0,0-.1,1.607,1.388,1.388,0,0,0,1.328.823,13.235,13.235,0,0,0,2.847-.347,23.006,23.006,0,0,1,3.4-.479,5.493,5.493,0,0,1,2.705.582,4.673,4.673,0,0,1,2.119,2.395,5.16,5.16,0,0,1,.184,4.023" transform="translate(-1.66 -1.668)" fill="#ffb700"/>
      <path id="Trazado_11211-3" data-name="Trazado 11211" d="M14.589,23.973a2.159,2.159,0,0,1-1.671.108,2.088,2.088,0,0,1-1.2-1.16l-.4-.884a12.358,12.358,0,0,1-5.3.471,2.108,2.108,0,0,1-1.039-.384,2.376,2.376,0,0,1-.686-.935,2.474,2.474,0,0,1-.17-1.663,1.674,1.674,0,0,1,.932-1.2,2.328,2.328,0,0,1,.724-.2,5.177,5.177,0,0,1,.988.021,9.749,9.749,0,0,0,2.328-.081,8.331,8.331,0,0,0,2.038-.642A3.858,3.858,0,0,0,12.8,16.2a1.3,1.3,0,0,0,.067-1.331.875.875,0,0,0-.609-.509,3.1,3.1,0,0,0-1.148-.061c-.454.05-1.116.154-1.968.308a26.22,26.22,0,0,1-3.5.438,6.043,6.043,0,0,1-2.862-.6,4.817,4.817,0,0,1-2.251-2.49A5.587,5.587,0,0,1,.332,7.695,7.641,7.641,0,0,1,3.017,4.113L2.549,3.088a2.076,2.076,0,0,1-.07-1.662A2.143,2.143,0,0,1,3.637.228,2.153,2.153,0,0,1,5.308.121a2.084,2.084,0,0,1,1.2,1.159l.429.942a11.9,11.9,0,0,1,4.578-.214,2.278,2.278,0,0,1,1.062.424,2.363,2.363,0,0,1,.665.895A2.442,2.442,0,0,1,13.4,5a1.715,1.715,0,0,1-.944,1.2,2.081,2.081,0,0,1-.707.185,8.273,8.273,0,0,1-.993-.009c-.1-.009-.339-.027-.949-.059A6.854,6.854,0,0,0,8.378,6.4a5.791,5.791,0,0,0-1.453.451A3.128,3.128,0,0,0,5.472,8.036a1.367,1.367,0,0,0-.086,1.347,1.1,1.1,0,0,0,1.082.658A13.061,13.061,0,0,0,9.248,9.7a23.383,23.383,0,0,1,3.439-.484,5.8,5.8,0,0,1,2.843.61,4.966,4.966,0,0,1,2.252,2.531,5.456,5.456,0,0,1,.192,4.235,7.634,7.634,0,0,1-2.752,3.525l.455,1a2.085,2.085,0,0,1,.088,1.668,2.156,2.156,0,0,1-1.176,1.191m-9.3-5.13a1.123,1.123,0,0,0-.619.819A1.9,1.9,0,0,0,4.8,20.955a1.869,1.869,0,0,0,.515.721,1.572,1.572,0,0,0,.772.273,11.945,11.945,0,0,0,5.292-.522l.237-.074.609,1.335a1.524,1.524,0,0,0,.881.863,1.791,1.791,0,0,0,2.13-.972,1.523,1.523,0,0,0-.075-1.23l-.647-1.419.19-.135A7.191,7.191,0,0,0,17.444,16.4a4.91,4.91,0,0,0-.175-3.811,4.422,4.422,0,0,0-1.987-2.258,5.235,5.235,0,0,0-2.568-.554,22.814,22.814,0,0,0-3.353.474,13.356,13.356,0,0,1-2.914.353,1.675,1.675,0,0,1-1.575-.988,1.92,1.92,0,0,1,.114-1.869,3.673,3.673,0,0,1,1.7-1.414,6.353,6.353,0,0,1,1.6-.495,7.438,7.438,0,0,1,1.554-.089c.46.023.8.045.961.059a7.765,7.765,0,0,0,.908.009,1.517,1.517,0,0,0,.516-.135,1.163,1.163,0,0,0,.633-.829,1.867,1.867,0,0,0-.125-1.294,1.809,1.809,0,0,0-.5-.685,1.722,1.722,0,0,0-.8-.31,11.239,11.239,0,0,0-4.577.262l-.232.065L6,1.514A1.521,1.521,0,0,0,5.117.652a1.588,1.588,0,0,0-1.245.09,1.576,1.576,0,0,0-.866.888,1.511,1.511,0,0,0,.057,1.224L3.72,4.3l-.186.136A7.171,7.171,0,0,0,.866,7.878a5.039,5.039,0,0,0,.172,3.844,4.277,4.277,0,0,0,1.979,2.214,5.484,5.484,0,0,0,2.6.544,25.986,25.986,0,0,0,3.424-.43c.865-.156,1.54-.261,2.005-.313a3.648,3.648,0,0,1,1.355.076,1.426,1.426,0,0,1,.979.82,1.845,1.845,0,0,1-.108,1.873,4.384,4.384,0,0,1-1.906,1.438,8.89,8.89,0,0,1-2.176.685,10.316,10.316,0,0,1-2.471.087,4.7,4.7,0,0,0-.881-.022,1.764,1.764,0,0,0-.548.148" transform="translate(0 0)" fill="#000087"/>
    </g>
  </g>
  <g id="Grupo_11465" data-name="Grupo 11465" transform="translate(354.275 103.216)">
    <g id="Grupo_11326" data-name="Grupo 11326" clip-path="url(#clip-path-4)">
      <g id="Grupo_11209" data-name="Grupo 11209" transform="translate(0 0)">
        <g id="Grupo_11208" data-name="Grupo 11208" clip-path="url(#clip-path-5)">
          <path id="Trazado_11989" data-name="Trazado 11989" d="M35.272,51.609q.315,1.722.533,3.431l.006,0c.106.1,10.726,10.343,22.05,9.25,5.632-.543,10.535-3.782,14.571-9.626,3.491-5.053,4.847-12.36,4.03-21.714v0a75.9,75.9,0,0,0-3.8-17.067A24.549,24.549,0,0,0,58.79,12.131a32.15,32.15,0,0,0-12.322,3.081,47.942,47.942,0,0,0-12.09,8.038,92.319,92.319,0,0,0,.893,28.36M48.341,33.453c-1.418.086-2.66-1.372-2.774-3.255s.943-3.479,2.361-3.563S50.59,28,50.7,29.887s-.943,3.479-2.361,3.565M60.991,22.34a10.336,10.336,0,0,1,3.369-2.508,8.879,8.879,0,0,1,8.671.669,1.007,1.007,0,0,1-1.042,1.725,6.894,6.894,0,0,0-6.782-.563,8.445,8.445,0,0,0-2.66,1.959,1.008,1.008,0,0,1-1.556-1.282m4.23,16.027-1.9-2.339-1.564-2.075a.251.251,0,0,1,.4-.3l1.558,2.069,1.895,2.335a2.049,2.049,0,0,1,.1,2.41,4.27,4.27,0,0,1-3.687,1.817,5.106,5.106,0,0,1-.917-.076.251.251,0,0,1,.1-.493c.028.006,2.734.519,4.09-1.524a1.549,1.549,0,0,0-.074-1.821m.022-9.818c-.114-1.883.943-3.479,2.361-3.565s2.662,1.37,2.776,3.253-.943,3.479-2.363,3.565-2.66-1.37-2.774-3.253M56,48.537a33.985,33.985,0,0,0,5.776-.192A26.385,26.385,0,0,0,67.1,46.882c1.6-.577,2.662-.959,3.325-.561a1.279,1.279,0,0,1,.557.991c.373,2.578-3.689,5.226-9.246,6.029a21.178,21.178,0,0,1-3.032.224,15.032,15.032,0,0,1-4.088-.517c-2.043-.585-3.271-1.6-3.453-2.87a1.207,1.207,0,0,1,.258-1.017c.649-.729,2.3-.687,4.575-.625M41.315,23.991a10.336,10.336,0,0,1,3.369-2.508,8.873,8.873,0,0,1,8.671.667,1.009,1.009,0,0,1-1.044,1.727,7.223,7.223,0,0,0-9.442,1.4,1.012,1.012,0,0,1-.777.363,1.008,1.008,0,0,1-.777-1.646" transform="translate(33.779 12.154)" fill="#ffb297"/>
          <path id="Trazado_11990" data-name="Trazado 11990" d="M58.054,32.267c.5,2.325-2.191,4.871-6,5.688s-7.309-.407-7.807-2.73,2.191-4.873,6-5.69,7.309.407,7.807,2.732" transform="translate(44.312 29.367)" fill="#ff5a5a"/>
          <path id="Trazado_11991" data-name="Trazado 11991" d="M120.849,88.216l-.01-.03a29.3,29.3,0,0,0-5.314-9.536c-5.506-6.91-8.3-12.711-7.653-15.911a.25.25,0,1,1,.491.1c-.613,3.056,2.139,8.707,7.555,15.5a30.615,30.615,0,0,1,5.182,9.017,74.806,74.806,0,0,1,7.154-14.692,35.8,35.8,0,0,1,3.455-4.629,45.8,45.8,0,0,1-3.635-4.386C115.643,46.38,104.056,45.757,91.792,45.1c-.351-.016-.691-.048-1.026-.08-2.726,5.744-6,8.759-8.27,10.277a11.792,11.792,0,0,1-4.416,1.959l-.036,0a.246.246,0,0,1-.246-.214.253.253,0,0,1,.212-.284c.07-.01,7.108-1.14,12.228-11.8a15.725,15.725,0,0,1-2.942-.647L84.67,47.959A15.07,15.07,0,0,1,74.441,54.13a15.562,15.562,0,0,1-2.147.15A15.03,15.03,0,0,1,62.914,51l-6.079-4.8q.225,2.842.533,5.338c.855.733,8.613,7.187,16.354,6.161a.247.247,0,0,1,.28.214.25.25,0,0,1-.214.28,13.342,13.342,0,0,1-1.759.116c-6.594,0-12.8-4.613-14.571-6.047,1.634,12.8,4.525,18.631,4.609,18.8,6.88,12.709,4.266,17.019,4.152,17.2a.251.251,0,0,1-.451-.064,10.508,10.508,0,0,0-2.035-4.234c1.086,7.431-2.223,12.633-7.607,21.1-.092.144-.184.29-.278.437,8.088,2.556,14.063,1.867,17.666.827a16.531,16.531,0,0,0,6-2.954.25.25,0,1,1,.334.373,16.632,16.632,0,0,1-6.165,3.052,25.6,25.6,0,0,1-7.156.965,36.021,36.021,0,0,1-10.958-1.825c-.324.513-.657,1.036-1,1.574-2.6,4.126-2.752,8.769-.449,13.8a24.7,24.7,0,0,0,4.3,6.385.251.251,0,0,1-.178.427.267.267,0,0,1-.068-.01c-10.806-3.1-17.456-11.787-19.765-25.836-1.614-9.822-1.146-22.249,1.43-38,1.518-9.27.621-15.925-2.594-19.25a7.488,7.488,0,0,0-3.928-2.157,34,34,0,0,0-8.038.26c-3.948.623-9.163,2.333-11.651,6.924.759,6.011,1.338,11.222,1.779,15.715a26.59,26.59,0,0,1,7.809,5.274,24.377,24.377,0,0,1,7.429,18.131,72.651,72.651,0,0,0,4.519-9.242.251.251,0,0,1,.469.18A74.512,74.512,0,0,1,30.6,90.235a.286.286,0,0,1-.03.054c-.947,1.6-2.019,3.279-3.217,4.957q-1.046,1.472-2.127,2.808c1.8,4.859,3.617,12.765,3.347,24.568a.2.2,0,0,1,0,.06l0,.01c-.068,2.87-.258,5.969-.6,9.31a135.951,135.951,0,0,1-3.058,17.916H116.01a85.47,85.47,0,0,1-3.441-13.694c-1.258-7.521-2.057-18.615,1.284-28.752a.237.237,0,0,1,.1-.132c.062-.04,6.267-4.086,7.483-11.409a16.787,16.787,0,0,0-.591-7.715" transform="translate(13.67 42.864)" fill="#ffb700"/>
          <path id="Trazado_11992" data-name="Trazado 11992" d="M61.238,73.328S46.711,87.768,32.186,73.06c0,0,14.8,8.793,29.052.268" transform="translate(32.28 73.274)" fill="#000087"/>
          <path id="Trazado_11993" data-name="Trazado 11993" d="M35.563,54.353,42,59.442A14.7,14.7,0,0,0,63.043,56.5l2.54-3.523A9.481,9.481,0,0,1,61.3,49.95a10.421,10.421,0,0,1-1.877-7.491,17.391,17.391,0,0,1-2.63.457c-.523.05-1.1.08-1.723.08-3.351,0-8.112-.885-13.894-4.356a42.53,42.53,0,0,1-6.391-4.709,59.643,59.643,0,0,1,.357,9.568c.02,3.966.174,7.579.419,10.854" transform="translate(34.89 34.03)" fill="#ffb297"/>
          <path id="Trazado_11994" data-name="Trazado 11994" d="M45.76,35.273a17.028,17.028,0,0,0,6.91.278c5.1-.739,9.143-3.241,8.821-5.464a.82.82,0,0,0-.316-.631c-.461-.276-1.536.11-2.9.6a26.721,26.721,0,0,1-5.426,1.486,34.247,34.247,0,0,1-5.863.2c-.565-.014-1.108-.028-1.606-.028-1.252,0-2.225.09-2.58.487a.716.716,0,0,0-.138.613c.154,1.06,1.254,1.933,3.1,2.462" transform="translate(42.775 29.45)" fill="#fff"/>
          <path id="Trazado_11995" data-name="Trazado 11995" d="M21.6,61.59q.054-1.31.14-2.616l0-.02,0-.022v0l.01-.028.008-.018.014-.026.01-.016.02-.02.014-.016.018-.014.02-.014.018-.01.026-.01.016-.006.032-.008h.016l.032,0h0l.022,0,.02,0c.044.01,4.485.975,9.816-3.868,3.82-3.469,8.268-10.177,7.417-12.028a1.466,1.466,0,0,0-1.23-.827c-.679-.044-2.107.33-4.03,3.369-1.875,2.962-4.9,2.924-7.333,2.56-1.855-.278-2.646-2.418-2.466-4.386a6.423,6.423,0,0,1,.447-1.785l.188-.471a21.868,21.868,0,0,1,.977-2.125,10.762,10.762,0,0,1,1.783-2.56c1.122-1.186,2.151-1.757,3.062-1.694a2.244,2.244,0,0,1,1.676,1.05c.741,1.025,1.382,2.043,1.949,2.942a22.706,22.706,0,0,0,1.28,1.913,1.444,1.444,0,0,0,1.124.533h.006a1.341,1.341,0,0,0,1.048-.5c.741-.925,1.021-3.069-1.841-8.024a6.764,6.764,0,0,0-4.635-3.671c-3.337-.567-6.872,1.923-8.727,3.505L22,36.646a.252.252,0,0,1-.248.216l-.036,0a.254.254,0,0,1-.212-.284L23.953,19.43a21.917,21.917,0,0,0,.15-3.119c-.052-1.995-.369-3.329-.891-3.756a.607.607,0,0,0-.525-.132c-.349.062-1.336.935-2.954,7.669.006.134.012.272.014.413a22.176,22.176,0,0,1-.154,3.2L17.828,38.585a.252.252,0,0,1-.248.22l-.03,0a.249.249,0,0,1-.218-.278L19.1,23.643a21.717,21.717,0,0,0,.152-3.123c-.054-1.991-.375-3.325-.9-3.754a.626.626,0,0,0-.535-.136c-.4.07-1.54,1.15-3.429,9.612a12.953,12.953,0,0,1,.23,2.241,13.088,13.088,0,0,1-.2,2.245c-.04.28-.08.559-.114.837L12.871,41.3a.25.25,0,0,1-.495-.074L13.81,31.5c.032-.276.074-.559.114-.843a12.665,12.665,0,0,0,.19-2.159c-.054-1.909-.365-3.189-.871-3.605a.618.618,0,0,0-.525-.134c-.481.084-1.861,1.526-4.3,13.1C7.072,44.277,6.053,50.72,6.043,50.784l0,.006,0,.018q-.9,3.389-1.725,6.666c6.463,3.966,15.713,4.12,17.291,4.116" transform="translate(4.325 12.448)" fill="#ffb297"/>
          <path id="Trazado_11996" data-name="Trazado 11996" d="M34.082,27.4A48.926,48.926,0,0,1,45.843,19.69a32.669,32.669,0,0,1,12.52-3.131,24.949,24.949,0,0,1,13.6,3.493,33.893,33.893,0,0,0-1.5-3.263,19.58,19.58,0,0,0-5.841-7.018,14.414,14.414,0,0,0-8.735-2.562C48.683,7.338,43,11.442,39.5,14.863a39.335,39.335,0,0,0-3.778,4.3.239.239,0,0,1,.036.226A51.711,51.711,0,0,0,34.082,27.4" transform="translate(34.182 7.227)" fill="#ff7300"/>
          <path id="Trazado_11997" data-name="Trazado 11997" d="M100.623,32.624a1,1,0,0,0-.817.066,2.085,2.085,0,0,0-.751,1.32l3.609,4.164c.286-3.665-.238-5.041-2.041-5.55" transform="translate(99.345 32.665)" fill="#ffb297"/>
          <path id="Trazado_11998" data-name="Trazado 11998" d="M98.444,30.193a.992.992,0,0,0-.8.06,1.92,1.92,0,0,0-.737,1.222l3.591,4.144c.266-3.575-.262-4.921-2.051-5.426" transform="translate(97.188 30.226)" fill="#ffb297"/>
          <path id="Trazado_11999" data-name="Trazado 11999" d="M102.309,35.664a.909.909,0,0,0-1.092.3l3.207,3.7c.016-2.818-.773-3.619-2.115-4" transform="translate(101.514 35.706)" fill="#ffb297"/>
          <path id="Trazado_12000" data-name="Trazado 12000" d="M25.593,84.864l.044-.01A7.812,7.812,0,0,1,31.9,87.281c3.383,3.489,4.3,10.113,2.738,19.687-2.568,15.691-3.036,28.067-1.43,37.835,1.064,6.473,3.068,11.841,5.957,15.955a24.028,24.028,0,0,0,12.588,9.22,25.761,25.761,0,0,1-3.774-5.837c-2.353-5.126-2.189-10.067.473-14.289q.8-1.274,1.554-2.452c5.472-8.6,8.775-13.8,7.431-21.385a.25.25,0,0,1,.337-.276c.142.054,1.37.615,2.564,4.238.437-1.57.887-6.285-4.408-16.066l0,0v0c-.042-.08-3.087-6.151-4.733-19.557a.231.231,0,0,1-.014-.1q-.337-2.758-.581-5.925a.259.259,0,0,1-.008-.088c-.248-3.307-.4-6.954-.427-10.958l0-.008v-.006A61.026,61.026,0,0,0,49.2,63.6a94.01,94.01,0,0,1-1.084-27.114,61.951,61.951,0,0,1,1.729-9.4c-.953,1.338-1.46,2.231-1.47,2.249a.25.25,0,0,1-.437-.244,38.15,38.15,0,0,1,6.025-7.6C57.524,18,63.324,13.816,70.7,13.685c6.457-.108,11.515,3.2,15.028,9.846a35.5,35.5,0,0,1,1.779,3.974.5.5,0,0,1,.022.058,76.113,76.113,0,0,1,3.844,17.215l0,.016c.831,9.482-.555,16.9-4.116,22.06C83.9,71.715,79.953,74.811,75.48,76.1a10.134,10.134,0,0,0,1.749,7.331c1.785,2.291,4.779,3.565,8.9,3.786,5.983.322,12.17.653,18.259,3.1a35.827,35.827,0,0,1,11.777,7.85,36.893,36.893,0,0,0-9.211-15.785C96.014,71.128,92.681,61.409,92.681,40.779c0-19.406-5.764-29.063-10.6-33.747C77.183,2.289,70.637.013,62.623.27,52.324.6,45.006,4.43,40.253,11.983c-4.166,6.618-5.78,15.058-7.076,23.138a63.09,63.09,0,0,1-1.807,7.413,112.484,112.484,0,0,0-3.261,14.141,30.424,30.424,0,0,0,0,11.236.25.25,0,0,1-.489.106c-.124-.563-.222-1.144-.3-1.743a170.621,170.621,0,0,1-8.01,19.006c.072-.012.142-.026.214-.036a34.246,34.246,0,0,1,6.073-.381" transform="translate(19.363 0.251)" fill="#000087"/>
          <path id="Trazado_12001" data-name="Trazado 12001" d="M94.411,48.521,84.835,37.473a4.735,4.735,0,0,1-.8-4.905,4.228,4.228,0,0,0-.336,5.887L94.635,51.069a5.363,5.363,0,0,1-.224-2.548" transform="translate(82.911 32.663)" fill="#000087"/>
          <path id="Trazado_12002" data-name="Trazado 12002" d="M96.082,28.609a.943.943,0,0,0-1.011.222L98.2,32.436c-.006-2.369-.6-3.4-2.115-3.828" transform="translate(95.35 28.637)" fill="#ffb297"/>
          <path id="Trazado_12003" data-name="Trazado 12003" d="M22.068,41.859q.015-1.295.064-2.588H22.1c-1.751,0-10.874-.2-17.369-4.106q-.5,1.992-.963,3.946c6.463,4.541,16.779,3.006,18.3,2.748" transform="translate(3.778 35.268)" fill="#ff7300"/>
          <path id="Trazado_12005" data-name="Trazado 12005" d="M96.521,52.039a4.225,4.225,0,0,0,5.877.5,4.722,4.722,0,0,1-4.743-1.482L95.419,48.48a9.874,9.874,0,0,1,.353,2.7Z" transform="translate(95.699 48.622)" fill="#000087"/>
          <path id="Trazado_12006" data-name="Trazado 12006" d="M78.707,55.554C77.7,56.67,72.494,62.811,68,75.285a17.266,17.266,0,0,1,.585,7.882,16.27,16.27,0,0,1-1.767,5.087c.276.138.805.4,1.54.743A69.3,69.3,0,0,1,81.509,58.342c-.949-.893-1.893-1.827-2.8-2.788" transform="translate(67.016 55.717)" fill="#ffe161"/>
          <path id="Trazado_12007" data-name="Trazado 12007" d="M114.313,40.742a.241.241,0,0,1-.078-.09L110.029,35.8a.251.251,0,0,1-.158-.182L102.918,27.6a4.236,4.236,0,0,0-5.969-.427l-1.51,1.31L84.88,37.63a4.238,4.238,0,0,0-.425,5.967l9.37,10.812a1.929,1.929,0,0,1,.867-.973,1.577,1.577,0,0,1,.168-.078L85.785,42.884a3.282,3.282,0,0,1,.328-4.627L97.4,28.478a3.28,3.28,0,0,1,4.627.33l25.171,29.043a3.281,3.281,0,0,1-.33,4.627l-11.28,9.778a3.263,3.263,0,0,1-2.143.8c-.08,0-.16,0-.24-.008a3.249,3.249,0,0,1-2.243-1.124l-9.236-10.656a10.16,10.16,0,0,1,.02,2.269l1.364,1.574a11.765,11.765,0,0,1,2.009,1.686,9.982,9.982,0,0,1,1.869,2.786l3.079,3.553a4.234,4.234,0,0,0,5.967.427l10.559-9.151,1.51-1.308a4.236,4.236,0,0,0,.427-5.969Z" transform="translate(83.669 26.213)" fill="#1f1fe5"/>
          <path id="Trazado_12008" data-name="Trazado 12008" d="M132,60.146l-1.51,1.308a4.693,4.693,0,0,1-3.093,1.158q-.171,0-.342-.012a4.7,4.7,0,0,1-3.239-1.622l-.4-.457a12.9,12.9,0,0,1-.194,1.486.25.25,0,0,1-.491-.094c1.534-8.016-5.776-11.028-5.849-11.058l-.21-.082.06-.216a10.454,10.454,0,0,0-1.8-8.064c-1.172-1.725-3.048-3.109-4.368-2.414-.789.417-1.284,1.759-.3,4.276.054.138.1.278.15.417l.016.044a21.083,21.083,0,0,1,.529,8.779c-.058.477-.126.963-.194,1.432-.375,2.608-.729,5.069.671,7.15l.164.246L91.073,86.108a.251.251,0,1,1-.379-.328l1.865-2.149a100.3,100.3,0,0,1-11.691-9.242,68.844,68.844,0,0,0-13.043,30.533c1.827.843,4.639,2.067,7.922,3.243,5.33,1.909,13.027,4.076,19.426,3.575,12.19-.959,32.526-43.229,32.73-43.656a.245.245,0,0,1,.138-.126,10.349,10.349,0,0,0,6-6.347,16.848,16.848,0,0,0,1.017-4.114L132,60.146" transform="translate(68.024 40.012)" fill="#ffb297"/>
          <path id="Trazado_12009" data-name="Trazado 12009" d="M90.138,36.28a.951.951,0,0,1-1.342-.1l-.745-.859-2.64,2.287a2.783,2.783,0,0,0-.28,3.922L94.37,52.2c1.466-.174,3.195,1.158,4.3,2.794a11.979,11.979,0,0,1,1.861,4.318L110.3,70.576a2.783,2.783,0,0,0,3.922.28l11.282-9.778a2.784,2.784,0,0,0,.278-3.922L100.613,28.114a2.778,2.778,0,0,0-3.92-.278l-2.586,2.239.745.859a.951.951,0,0,1-.094,1.342Z" transform="translate(84.7 27.235)" fill="#fff"/>
          <path id="Trazado_12010" data-name="Trazado 12010" d="M24.436,70.583A42.529,42.529,0,0,1,16.9,77.874a29.876,29.876,0,0,1-2.84,1.853c.258,5.512,2.648,9.666,7.11,12.348a18.835,18.835,0,0,0,6.487,2.369c.234-11.367-1.48-19.058-3.219-23.861" transform="translate(14.098 70.79)" fill="#000087"/>
          <path id="Trazado_12011" data-name="Trazado 12011" d="M29.208,78.249A23.985,23.985,0,0,0,21.95,59.585a26.35,26.35,0,0,0-7.4-5.067q.18,1.86.328,3.555C21.9,61.687,24.69,68.324,25.8,73.269a35.359,35.359,0,0,1,.779,9.1c.965-1.4,1.845-2.788,2.634-4.122" transform="translate(14.588 54.678)" fill="#ffe161"/>
          <path id="Trazado_12012" data-name="Trazado 12012" d="M40.364,100.334a34.09,34.09,0,0,0-.715-9.8c-1.07-4.769-3.739-11.142-10.379-14.7.541,6.265.775,10.818.865,13.987a53.508,53.508,0,0,1-.19,8.811.25.25,0,0,1-.244.206l-.046,0a.253.253,0,0,1-.2-.29,54.457,54.457,0,0,0,.184-8.765c-.17-6-.863-16.957-3.175-35.109A108.187,108.187,0,0,1,25.6,40.13a37.357,37.357,0,0,1-5.8.447c-3.874,0-8.849-.611-12.622-3.181-8.833,37.189-9.264,63.03-1.094,73.358a12.773,12.773,0,0,0,10.924,4.981,23.73,23.73,0,0,0,13.444-4.977,45.817,45.817,0,0,0,9.912-10.423" transform="translate(0.243 37.505)" fill="#ffb297"/>
          <path id="Trazado_12013" data-name="Trazado 12013" d="M206.422,75.929c.12-3.129-.553-4.5-2.466-5.041a1.412,1.412,0,0,0-1.474.308c.363-4.164-.252-5.788-2.377-6.389a1.479,1.479,0,0,0-1.21.118,1.9,1.9,0,0,0-.705.841c.258-3.754-.389-5.254-2.424-5.829a1.482,1.482,0,0,0-1.19.106,1.642,1.642,0,0,0-.541.531c-.1-2.273-.823-3.347-2.47-3.812a1.438,1.438,0,0,0-1.472.326l-3.129-3.609A4.735,4.735,0,0,0,180.292,53l-12.07,10.459,0,0-1.508,1.308a4.731,4.731,0,0,0-.477,6.674l11.757,13.566a20.641,20.641,0,0,1,.5,8.535c-.056.471-.126.953-.194,1.42-.367,2.558-.747,5.2.705,7.429l-18.088,20.865c-1.55-1.03-12.679-8.585-18.763-17.039a60.5,60.5,0,0,0-5.943-7.132.256.256,0,0,0,0-.11,37.356,37.356,0,0,0-9.532-16.7C115.846,71.14,112.545,61.5,112.545,41.03c0-19.583-5.849-29.357-10.754-34.108-5-4.841-11.667-7.165-19.821-6.9C71.491.354,64.04,4.262,59.191,11.968c-4.214,6.7-5.841,15.194-7.144,23.324a63.306,63.306,0,0,1-1.795,7.355,114.592,114.592,0,0,0-3.275,14.2,34.952,34.952,0,0,0-.423,8.557.247.247,0,0,0-.09.128c-2.456,8.1-8.254,19.8-8.314,19.917a.258.258,0,0,0-.016.176C33,86.577,29.247,88.8,27.2,92.1a107.919,107.919,0,0,1-.647-20.362,7.037,7.037,0,0,0,.933.058c1.739,0,5.144-.551,9.045-4.094,3.3-3,8.633-10.219,7.535-12.608a1.978,1.978,0,0,0-1.65-1.118,2.373,2.373,0,0,0-.292,0,1.812,1.812,0,0,0,.361-.34c1.218-1.522.613-4.41-1.8-8.587A7.233,7.233,0,0,0,35.7,41.13c-3.287-.559-6.7,1.63-8.7,3.259l1.781-12.446a22.476,22.476,0,0,0,.156-3.2c-.058-2.205-.421-3.593-1.076-4.13a1.1,1.1,0,0,0-.929-.236c-.593.1-1.534.943-3.01,6.666a3.588,3.588,0,0,0-.923-2.219,1.123,1.123,0,0,0-.939-.24c-.691.12-1.811,1.222-3.635,9.135a1.978,1.978,0,0,0-.533-.767,1.1,1.1,0,0,0-.925-.24c-.829.142-2.219,1.7-4.7,13.494-1.332,6.327-2.341,12.675-2.381,12.933Q8.943,66.623,8.1,69.987L8.1,70q-.559,2.235-1.08,4.418l0,.018c-8.945,37.533-9.372,63.653-1.084,74.131a13.172,13.172,0,0,0,10.832,5.178c.164,0,.332,0,.5-.006a22.83,22.83,0,0,0,10.405-2.946A14.91,14.91,0,0,0,35.023,163.3a19.024,19.024,0,0,0,6.72,2.438c-.072,2.8-.26,5.819-.595,9.069a132.9,132.9,0,0,1-3.127,18.161.251.251,0,0,0,.242.314h91.772a.252.252,0,0,0,.206-.108.255.255,0,0,0,.028-.23,82.69,82.69,0,0,1-3.541-13.95c-2.247-13.454-.575-22.87,1.242-28.42a20.005,20.005,0,0,0,5.618-6.167c.308.154.957.473,1.871.9l.024.01c1.831.849,4.721,2.115,8.112,3.329,8.172,2.928,13.932,3.679,17.69,3.679.723,0,1.372-.028,1.949-.074,5.26-.413,12.438-7.944,21.341-22.385,6.281-10.191,11.244-20.4,11.757-21.463,6.762-2.606,7.283-11.208,7.287-11.295a.211.211,0,0,0,0-.062l8.478-7.347a4.737,4.737,0,0,0,.477-6.674Zm-2.6-4.559c1.342.379,2.131,1.178,2.115,4l-3.2-3.7a.906.906,0,0,1,1.09-.3m-4.667-6.017a1,1,0,0,1,.815-.066c1.8.511,2.327,1.885,2.041,5.55L198.4,66.674a2.077,2.077,0,0,1,.753-1.32m-4.326-4.875a.992.992,0,0,1,.8-.06c1.789.5,2.317,1.851,2.051,5.426L194.09,61.7a1.928,1.928,0,0,1,.737-1.222m-3.4-3.235c1.52.431,2.109,1.458,2.117,3.83l-3.127-3.607a.943.943,0,0,1,1.009-.222M166.614,71.118a4.227,4.227,0,0,1,.336-5.887,4.735,4.735,0,0,0,.8,4.905l9.576,11.048a5.363,5.363,0,0,0,.224,2.548ZM46.678,66.524c.08.6.178,1.182.3,1.743a.25.25,0,1,0,.489-.106,30.414,30.414,0,0,1,0-11.234,112.615,112.615,0,0,1,3.261-14.143,62.994,62.994,0,0,0,1.807-7.413c1.3-8.078,2.91-16.518,7.076-23.136C64.368,4.681,71.687.849,81.986.519,90,.264,96.545,2.538,101.443,7.283c4.837,4.683,10.6,14.339,10.6,33.747,0,20.628,3.333,30.346,14.269,41.593a36.9,36.9,0,0,1,9.211,15.787,35.8,35.8,0,0,0-11.777-7.85c-6.089-2.444-12.276-2.776-18.259-3.1-4.118-.222-7.112-1.5-8.9-3.788a10.13,10.13,0,0,1-1.749-7.329c4.473-1.286,8.424-4.382,11.779-9.242,3.561-5.158,4.947-12.58,4.116-22.062l0-.016a76.093,76.093,0,0,0-3.844-17.213.391.391,0,0,0-.022-.058,35.173,35.173,0,0,0-1.779-3.974c-3.513-6.648-8.571-9.955-15.028-9.846-7.375.128-13.175,4.314-16.74,7.8a38.187,38.187,0,0,0-6.025,7.6.251.251,0,0,0,.437.246c.01-.018.517-.911,1.47-2.251a62.05,62.05,0,0,0-1.729,9.4,94.012,94.012,0,0,0,1.084,27.114,61.017,61.017,0,0,1,.975,13.656v.008l0,.008c.022,4,.178,7.651.427,10.956a.259.259,0,0,0,.008.088q.24,3.173.581,5.925a.24.24,0,0,0,.014.106c1.646,13.4,4.691,19.477,4.733,19.557v0l0,0c5.3,9.78,4.845,14.5,4.408,16.066-1.194-3.623-2.422-4.184-2.564-4.238a.252.252,0,0,0-.336.278c1.344,7.587-1.959,12.781-7.431,21.385q-.751,1.181-1.554,2.45c-2.662,4.222-2.826,9.163-.473,14.289a25.668,25.668,0,0,0,3.773,5.837,24.028,24.028,0,0,1-12.588-9.22c-2.888-4.112-4.893-9.482-5.957-15.955-1.606-9.766-1.138-22.142,1.43-37.833,1.566-9.576.645-16.2-2.738-19.689A7.828,7.828,0,0,0,45,85.1a.181.181,0,0,0-.044.012,34.411,34.411,0,0,0-6.073.379l-.214.036a170.449,170.449,0,0,0,8.01-19.006m23,1.438a42.64,42.64,0,0,0,6.391,4.709c5.784,3.471,10.543,4.356,13.9,4.356.623,0,1.2-.03,1.723-.08a17.69,17.69,0,0,0,2.63-.457,10.421,10.421,0,0,0,1.877,7.491,9.479,9.479,0,0,0,4.278,3.026l-2.538,3.523a14.7,14.7,0,0,1-21.041,2.942l-6.439-5.089c-.244-3.275-.4-6.888-.421-10.854a59.412,59.412,0,0,0-.357-9.568M69.9,26.385a38.7,38.7,0,0,1,3.778-4.3c3.5-3.421,9.183-7.525,16.39-7.651A14.379,14.379,0,0,1,98.807,17a19.587,19.587,0,0,1,5.843,7.018,33.931,33.931,0,0,1,1.5,3.263,24.956,24.956,0,0,0-13.6-3.5,32.669,32.669,0,0,0-12.52,3.131,49.057,49.057,0,0,0-11.763,7.711,51.145,51.145,0,0,1,1.678-8.016.25.25,0,0,0-.036-.226m10.341.981A32.114,32.114,0,0,1,92.57,24.286a24.527,24.527,0,0,1,13.87,3.754,75.851,75.851,0,0,1,3.8,17.067l0,0c.815,9.354-.539,16.658-4.032,21.714-4.036,5.845-8.937,9.083-14.569,9.626C80.314,77.542,69.694,67.3,69.59,67.2l-.006,0q-.219-1.71-.533-3.431a92.319,92.319,0,0,1-.893-28.36,47.912,47.912,0,0,1,12.088-8.038M10.361,63.257l0-.018,0-.008c.01-.064,1.029-6.506,2.381-12.923,2.436-11.577,3.816-13.019,4.294-13.1a.615.615,0,0,1,.525.134c.509.417.819,1.7.873,3.605a12.873,12.873,0,0,1-.19,2.159c-.042.284-.082.567-.116.843L16.7,53.679a.25.25,0,1,0,.495.074l1.434-9.738c.034-.278.074-.557.114-.837a13.088,13.088,0,0,0,.194-2.245,12.975,12.975,0,0,0-.228-2.241c1.889-8.462,3.026-9.542,3.427-9.612a.628.628,0,0,1,.537.136c.525.429.843,1.763.9,3.751a21.459,21.459,0,0,1-.152,3.125L21.654,50.973a.25.25,0,0,0,.22.278l.03,0a.249.249,0,0,0,.246-.22l1.767-14.882a22.176,22.176,0,0,0,.154-3.2c0-.142-.008-.278-.016-.413,1.62-6.736,2.606-7.607,2.956-7.669a.609.609,0,0,1,.525.132c.523.427.839,1.761.891,3.754a21.607,21.607,0,0,1-.152,3.119L25.824,49.024a.249.249,0,0,0,.212.282l.036,0a.248.248,0,0,0,.246-.216l.569-3.966c1.855-1.582,5.388-4.072,8.725-3.505a6.76,6.76,0,0,1,4.635,3.671c2.864,4.955,2.582,7.1,1.843,8.024a1.336,1.336,0,0,1-1.048.5h-.008a1.441,1.441,0,0,1-1.122-.531c-.332-.409-.771-1.106-1.28-1.913-.567-.9-1.208-1.917-1.949-2.942a2.247,2.247,0,0,0-1.678-1.05c-.911-.062-1.941.509-3.062,1.692a10.876,10.876,0,0,0-1.783,2.562,21.87,21.87,0,0,0-.975,2.125L29,54.229a6.423,6.423,0,0,0-.447,1.785c-.18,1.969.609,4.108,2.466,4.386,2.43.365,5.456.4,7.333-2.56,1.921-3.038,3.351-3.415,4.03-3.371a1.467,1.467,0,0,1,1.23.829c.851,1.851-3.6,8.559-7.417,12.028-5.332,4.843-9.772,3.878-9.816,3.868l-.022,0-.02,0h0l-.032,0h-.018l-.032.008-.014,0-.026.012-.018.01-.02.014-.02.014-.014.016-.018.02-.01.016-.016.026-.006.018-.01.028,0,0,0,.022,0,.02q-.084,1.3-.138,2.616c-1.58,0-10.828-.15-17.293-4.116q.823-3.281,1.727-6.666m30.625-8.941a8.893,8.893,0,0,0-3.062,3.257c-.9,1.428-2.5,2.984-6.834,2.333-1.55-.232-2.2-2.111-2.041-3.848a5.848,5.848,0,0,1,.413-1.642l.188-.471a21.356,21.356,0,0,1,.953-2.077,10.4,10.4,0,0,1,1.7-2.452,4.023,4.023,0,0,1,2.57-1.54c.032,0,.064,0,.1,0a1.757,1.757,0,0,1,1.306.843c.729,1.011,1.368,2.023,1.929,2.916A23.533,23.533,0,0,0,39.524,53.6a1.942,1.942,0,0,0,1.462.715M8.509,70.431c6.5,3.912,15.619,4.108,17.369,4.108h.032q-.048,1.292-.064,2.588c-1.522.258-11.835,1.793-18.3-2.75q.466-1.953.963-3.946m8.743,82.807a12.777,12.777,0,0,1-10.926-4.981C-1.844,137.93-1.414,112.088,7.419,74.9c3.776,2.57,8.751,3.181,12.622,3.181a37.1,37.1,0,0,0,5.8-.447A108.545,108.545,0,0,0,26.7,92.181c2.313,18.151,3,29.111,3.177,35.107a55.083,55.083,0,0,1-.182,8.767.25.25,0,0,0,.2.288l.042,0a.251.251,0,0,0,.246-.208,53.281,53.281,0,0,0,.192-8.811c-.09-3.169-.324-7.721-.867-13.987,6.64,3.555,9.312,9.929,10.379,14.7a34.091,34.091,0,0,1,.715,9.8A45.817,45.817,0,0,1,30.7,148.261a23.73,23.73,0,0,1-13.444,4.977m23.132-25.293c-1.1-4.945-3.9-11.581-10.922-15.2q-.147-1.694-.328-3.553a26.281,26.281,0,0,1,7.4,5.065A23.988,23.988,0,0,1,43.8,132.925c-.789,1.334-1.668,2.724-2.634,4.122a35.272,35.272,0,0,0-.779-9.1m-5.117,34.917c-4.463-2.68-6.854-6.836-7.11-12.346A30.566,30.566,0,0,0,31,148.662a42.53,42.53,0,0,0,7.539-7.291c1.737,4.8,3.453,12.494,3.219,23.863a18.9,18.9,0,0,1-6.488-2.371M127.625,150.2a.249.249,0,0,0-.1.132c-3.341,10.137-2.544,21.231-1.286,28.752a85.383,85.383,0,0,0,3.443,13.694H38.587a135.961,135.961,0,0,0,3.058-17.914c.345-3.343.535-6.441.6-9.312l0-.01a.2.2,0,0,0,0-.06c.27-11.8-1.546-19.709-3.347-24.568q1.079-1.34,2.127-2.808c1.2-1.678,2.269-3.359,3.215-4.957a.241.241,0,0,0,.032-.054A74.158,74.158,0,0,0,49.3,122.97a.25.25,0,1,0-.467-.178,73.075,73.075,0,0,1-4.519,9.244A24.379,24.379,0,0,0,36.886,113.9a26.59,26.59,0,0,0-7.807-5.276c-.441-4.491-1.019-9.7-1.779-15.715,2.486-4.589,7.7-6.3,11.649-6.922a33.9,33.9,0,0,1,8.04-.26,7.49,7.49,0,0,1,3.926,2.157c3.215,3.325,4.112,9.981,2.6,19.252-2.576,15.745-3.044,28.173-1.43,38,2.309,14.049,8.959,22.741,19.765,25.836a.267.267,0,0,0,.068.01.255.255,0,0,0,.216-.122.251.251,0,0,0-.038-.3,24.7,24.7,0,0,1-4.3-6.385c-2.305-5.029-2.155-9.672.447-13.8.341-.539.671-1.062,1-1.574A36,36,0,0,0,80.2,150.621a25.608,25.608,0,0,0,7.158-.965,16.632,16.632,0,0,0,6.165-3.052.25.25,0,0,0-.334-.373,16.531,16.531,0,0,1-6,2.954c-3.6,1.04-9.578,1.729-17.666-.825.092-.148.186-.294.278-.439,5.384-8.466,8.693-13.668,7.605-21.1a10.487,10.487,0,0,1,2.037,4.236.251.251,0,0,0,.451.064c.114-.176,2.728-4.489-4.152-17.2-.084-.164-2.974-6-4.609-18.8C72.9,96.56,79.106,101.17,85.7,101.17a13.309,13.309,0,0,0,1.757-.114.251.251,0,1,0-.066-.5c-7.739,1.028-15.5-5.426-16.352-6.161q-.3-2.5-.533-5.336l6.077,4.8a15.052,15.052,0,0,0,9.382,3.279,15.562,15.562,0,0,0,2.147-.15A15.07,15.07,0,0,0,98.34,90.823l2.626-3.645a15.886,15.886,0,0,0,2.942.647C98.789,98.482,91.75,99.612,91.68,99.622a.251.251,0,0,0,.034.5l.036,0a11.751,11.751,0,0,0,4.416-1.959c2.273-1.518,5.544-4.533,8.27-10.277.334.032.673.062,1.023.08,12.266.659,23.851,1.282,36.283,18.551a45.775,45.775,0,0,0,3.635,4.388,35.641,35.641,0,0,0-3.455,4.629,74.574,74.574,0,0,0-7.154,14.692,30.632,30.632,0,0,0-5.184-9.019c-5.414-6.8-8.168-12.446-7.553-15.5a.251.251,0,0,0-.493-.1c-.641,3.2,2.149,9,7.655,15.911a29.342,29.342,0,0,1,5.314,9.536l.01.03a16.787,16.787,0,0,1,.591,7.715c-1.216,7.323-7.421,11.369-7.485,11.409m7.751-5.49c-.735-.344-1.264-.6-1.54-.745a16.24,16.24,0,0,0,1.767-5.085,17.264,17.264,0,0,0-.585-7.882c4.493-12.476,9.7-18.615,10.706-19.731.909.961,1.853,1.895,2.8,2.788a69.29,69.29,0,0,0-13.149,30.655m66.688-43.093a10.349,10.349,0,0,1-6,6.347.245.245,0,0,0-.138.126c-.2.427-20.54,42.7-32.73,43.656-6.4.5-14.1-1.666-19.426-3.575-3.285-1.176-6.095-2.4-7.924-3.243A68.834,68.834,0,0,1,148.892,114.4a100.19,100.19,0,0,0,11.691,9.24l-1.865,2.151a.249.249,0,0,0,.026.353.239.239,0,0,0,.162.062.251.251,0,0,0,.19-.088l20.532-23.685-.164-.246c-1.4-2.079-1.048-4.543-.671-7.148.066-.471.136-.955.194-1.432a21.092,21.092,0,0,0-.529-8.781l-.016-.042c-.048-.14-.1-.28-.15-.417-.983-2.52-.489-3.862.3-4.278,1.32-.693,3.2.689,4.368,2.414a10.454,10.454,0,0,1,1.8,8.064l-.06.216.208.084c.074.028,7.385,3.04,5.851,11.056a.25.25,0,1,0,.491.094,12.783,12.783,0,0,0,.194-1.486l.4.459a4.7,4.7,0,0,0,3.239,1.62q.171.012.342.012a4.7,4.7,0,0,0,3.093-1.156l1.51-1.31,3.056-2.648a16.86,16.86,0,0,1-1.017,4.112M179.555,58.169l-.745-.861,2.584-2.239a2.783,2.783,0,0,1,3.922.28l25.171,29.043a2.785,2.785,0,0,1-.28,3.922L198.923,98.09A2.78,2.78,0,0,1,195,97.811l-9.766-11.271a12.008,12.008,0,0,0-1.861-4.318c-1.11-1.636-2.838-2.968-4.3-2.794l-9.24-10.66a2.783,2.783,0,0,1,.28-3.922l2.642-2.289.745.861a.951.951,0,0,0,1.34.1l4.621-4.006a.951.951,0,0,0,.1-1.34M185.311,90.4l.136.156c-.056-.028-.11-.052-.154-.072l.018-.084m5.807,6.7,2.233,2.578a4.725,4.725,0,0,0,4.745,1.482,4.225,4.225,0,0,1-5.877-.5l-.749-.863a10.032,10.032,0,0,0-.353-2.7m20.648-7.783-1.51,1.31L199.7,99.78a4.236,4.236,0,0,1-5.967-.429L190.651,95.8a9.923,9.923,0,0,0-1.869-2.786,11.878,11.878,0,0,0-2.009-1.688l-1.364-1.574a10.16,10.16,0,0,0-.02-2.269l9.236,10.656a3.25,3.25,0,0,0,2.245,1.124c.078.006.158.01.238.01a3.265,3.265,0,0,0,2.143-.8l11.28-9.778a3.281,3.281,0,0,0,.33-4.627L185.692,55.021a3.279,3.279,0,0,0-4.627-.33l-11.28,9.778a3.28,3.28,0,0,0-.33,4.627l9.075,10.473c-.056.024-.112.048-.168.078a1.943,1.943,0,0,0-.865.973l-9.372-10.812a4.235,4.235,0,0,1,.425-5.965l10.559-9.153,1.51-1.31a4.238,4.238,0,0,1,5.969.427l6.952,8.022a.251.251,0,0,0,.158.184l4.206,4.851a.227.227,0,0,0,.078.09l14.211,16.4a4.236,4.236,0,0,1-.427,5.969" transform="translate(0 0)" fill="#000087"/>
          <path id="Trazado_12014" data-name="Trazado 12014" d="M37.743,21.13a1,1,0,0,0,.641.232A1.012,1.012,0,0,0,39.161,21,7.224,7.224,0,0,1,48.6,19.6a1.008,1.008,0,1,0,1.044-1.725,8.871,8.871,0,0,0-8.671-.665,10.212,10.212,0,0,0-3.369,2.508,1,1,0,0,0,.136,1.412" transform="translate(37.487 16.429)" fill="#000087"/>
          <path id="Trazado_12015" data-name="Trazado 12015" d="M47.569,20.31a1,1,0,0,0,1.418-.136,8.4,8.4,0,0,1,2.66-1.961,6.9,6.9,0,0,1,6.782.563,1.007,1.007,0,1,0,1.042-1.725,8.883,8.883,0,0,0-8.671-.667,10.322,10.322,0,0,0-3.369,2.51,1,1,0,0,0,.138,1.416" transform="translate(47.34 15.603)" fill="#000087"/>
          <path id="Trazado_12016" data-name="Trazado 12016" d="M41.981,19.368c-1.418.086-2.476,1.682-2.361,3.565s1.356,3.339,2.774,3.253,2.476-1.68,2.361-3.563-1.356-3.341-2.774-3.255" transform="translate(39.727 19.421)" fill="#000087"/>
          <path id="Trazado_12017" data-name="Trazado 12017" d="M52.217,25.362c1.418-.086,2.476-1.682,2.361-3.565s-1.356-3.339-2.774-3.253-2.476,1.68-2.361,3.563,1.356,3.341,2.774,3.255" transform="translate(49.58 18.594)" fill="#000087"/>
          <path id="Trazado_12018" data-name="Trazado 12018" d="M42.419,33.135C42.6,34.4,43.827,35.418,45.872,36a15.032,15.032,0,0,0,4.088.517,21.178,21.178,0,0,0,3.032-.224c5.556-.8,9.618-3.453,9.244-6.029a1.277,1.277,0,0,0-.555-.991c-.663-.4-1.723-.016-3.325.561a26.4,26.4,0,0,1-5.328,1.46,33.8,33.8,0,0,1-5.778.192c-2.277-.06-3.924-.1-4.573.627a1.2,1.2,0,0,0-.258,1.017m.633-.685c.353-.4,1.328-.487,2.58-.487.5,0,1.042.014,1.606.028a34.248,34.248,0,0,0,5.863-.2,26.852,26.852,0,0,0,5.426-1.486c1.362-.491,2.436-.879,2.9-.6a.819.819,0,0,1,.318.633c.322,2.223-3.717,4.725-8.821,5.464a17.063,17.063,0,0,1-6.91-.278c-1.845-.529-2.942-1.4-3.1-2.462a.716.716,0,0,1,.138-.613" transform="translate(42.525 29.198)" fill="#000087"/>
          <path id="Trazado_12019" data-name="Trazado 12019" d="M47.573,30.982a.252.252,0,0,0-.294.2.249.249,0,0,0,.2.294,4.941,4.941,0,0,0,.915.078,4.273,4.273,0,0,0,3.689-1.817,2.052,2.052,0,0,0-.1-2.412l-1.895-2.335L48.526,22.92a.252.252,0,0,0-.351-.05.248.248,0,0,0-.05.351L49.69,25.3l1.9,2.341a1.546,1.546,0,0,1,.072,1.821c-1.356,2.043-4.06,1.53-4.088,1.524" transform="translate(47.412 22.887)" fill="#000087"/>
          <path id="Trazado_12020" data-name="Trazado 12020" d="M66.739,74.992a23.785,23.785,0,0,1-6.029,1.184l5.756,1.262Z" transform="translate(60.888 75.212)" fill="#000087"/>
          <path id="Trazado_12021" data-name="Trazado 12021" d="M41.048,20.857c0,.545-.218.985-.487.985s-.485-.441-.485-.985.216-.985.485-.985.487.441.487.985" transform="translate(40.194 19.93)" fill="#fff"/>
          <path id="Trazado_12022" data-name="Trazado 12022" d="M50.786,20.134c0,.545-.218.985-.487.985s-.485-.441-.485-.985.216-.985.485-.985.487.441.487.985" transform="translate(49.961 19.205)" fill="#fff"/>
          <path id="Trazado_12023" data-name="Trazado 12023" d="M59.745,44.713a25.949,25.949,0,0,1-23.927-9.919s9.768,6.766,16.566,7.07c0,0,4.6.361,7.361-.915Z" transform="translate(35.923 34.896)" fill="#000087"/>
          <path id="Trazado_12024" data-name="Trazado 12024" d="M68.09,70.055,83.45,80.172,72.911,76.707l-6.091-3Z" transform="translate(67.016 70.26)" fill="#000087"/>
          <path id="Trazado_12025" data-name="Trazado 12025" d="M30.368,61.395s-.355,16.574-7.475,31.262L18.881,84.1l.5-4.829,4.729-5.742,3.517-7.275Z" transform="translate(18.936 61.575)" fill="#000087"/>
          <path id="Trazado_12026" data-name="Trazado 12026" d="M36.213,52.264s9.027,3.111,16.222,1.773l-5.752-.6-4.234-1.554L38.36,49.62l-3.441-2.736Z" transform="translate(35.021 47.021)" fill="#000087"/>
          <path id="Trazado_12027" data-name="Trazado 12027" d="M15.435,79.682s5.113-12.032-.725-23.39l.585,11.21.148,8.655Z" transform="translate(14.753 56.457)" fill="#000087"/>
          <path id="Trazado_12028" data-name="Trazado 12028" d="M79.243,64.352l.915-3.091,1.3.805Z" transform="translate(79.475 61.441)" fill="#000087"/>
          <path id="Trazado_12029" data-name="Trazado 12029" d="M34.029,23.369S56.155,7.732,72.311,16c0,0-5.981-5.152-17.023-3.768S34.029,23.369,34.029,23.369" transform="translate(34.129 12.035)" fill="#000087"/>
        </g>
      </g>
      <g id="Grupo_11192" data-name="Grupo 11192" transform="matrix(0.616, -0.788, 0.788, 0.616, 45.105, 220.581)">
        <g id="Grupo_11004" data-name="Grupo 11004" transform="translate(197.555 21.25)">
          <g id="Grupo_11003" data-name="Grupo 11003" clip-path="url(#clip-path-8)">
            <rect id="Rectángulo_7453" data-name="Rectángulo 7453" width="14.72" height="14.36" transform="translate(-4.627 1.736) rotate(-23.777)" fill="url(#radial-gradient)"/>
          </g>
        </g>
        <g id="Grupo_11005" data-name="Grupo 11005" transform="translate(195.789 20.048)" clip-path="url(#clip-path-9)">
          <rect id="Rectángulo_7454" data-name="Rectángulo 7454" width="19.138" height="23.308" transform="matrix(0.362, -0.932, 0.932, 0.362, -8.11, 11.073)" fill="url(#linear-gradient)"/>
        </g>
      </g>
    </g>
  </g>
  <rect id="Rectángulo_2941" data-name="Rectángulo 2941" width="600" height="8" transform="translate(600 304) rotate(180)" fill="#0047ff"/>
  <g id="Logo_Hor_blanco" data-name="Logo Hor blanco" transform="translate(382.543 10)">
    <g id="Grupo_11865" data-name="Grupo 11865" clip-path="url(#clip-path-10)">
      <path id="Trazado_12712" data-name="Trazado 12712" d="M6.22,0C-7.064,0,5.265,31.176,29.53,33,7.353,25.614-5.023-1.039,13.7,2.172A17.659,17.659,0,0,0,6.224,0Z" transform="translate(-0.595 0)" fill="#fff" fill-rule="evenodd"/>
      <path id="Trazado_12713" data-name="Trazado 12713" d="M19.988,25.381c.218,3.3,2.442,7.706,6.1,11.944a42.519,42.519,0,0,0,7.719,6.962,11.781,11.781,0,0,0-7.026-21.124,11.494,11.494,0,0,0-6.8,2.218" transform="translate(-15.151 -17.484)" fill="#fff"/>
      <path id="Trazado_12714" data-name="Trazado 12714" d="M7.162,62.712A34.259,34.259,0,0,1,.873,52.871,11.822,11.822,0,0,0,0,57.342,11.7,11.7,0,0,0,11.632,69.1a11.532,11.532,0,0,0,2.652-.311,35.671,35.671,0,0,1-7.122-6.077" transform="translate(0 -39.907)" fill="#fff"/>
      <path id="Trazado_12715" data-name="Trazado 12715" d="M446.178,33.6V36.74H438.52a3.389,3.389,0,0,0-3.058,1.466,8.747,8.747,0,0,0-.961,4.671,7.629,7.629,0,0,0,.954,4.337,3.5,3.5,0,0,0,3.065,1.342h4.007v-4.3H437.76V41.027h8.419V51.861H438.52a10.936,10.936,0,0,1-3.254-.373,6.164,6.164,0,0,1-2.124-1.23,6.819,6.819,0,0,1-1.953-2.913,12.631,12.631,0,0,1-.651-4.293q0-4.833,1.953-7.144T438.52,33.6Z" transform="translate(-326.351 -25.359)" fill="#fff"/>
      <rect id="Rectángulo_7647" data-name="Rectángulo 7647" width="3.719" height="18.264" transform="translate(122.893 8.238)" fill="#fff"/>
      <path id="Trazado_12716" data-name="Trazado 12716" d="M535.873,33.6h8.764a6.437,6.437,0,0,1,4.492,1.329,5.448,5.448,0,0,1,1.427,4.163,6.1,6.1,0,0,1-.882,3.429,4,4,0,0,1-2.539,1.715l4.226,7.628h-4.007l-3.731-7.181h-4.193v7.181h-3.558Zm7.923,3.255h-4.365v4.6H543.8a4.267,4.267,0,0,0,2.465-.522,2.108,2.108,0,0,0,.691-1.789,2.1,2.1,0,0,0-.674-1.771,4.3,4.3,0,0,0-2.482-.516" transform="translate(-406.196 -25.359)" fill="#fff"/>
      <path id="Trazado_12717" data-name="Trazado 12717" d="M603.542,41.383q0-4.709,2.09-7.008t6.358-2.3q4.3,0,6.371,2.323t2.064,7.169q0,4.846-2.064,7.182t-6.371,2.335q-4.351,0-6.4-2.347t-2.049-7.356m8.448-6.175a3.973,3.973,0,0,0-3.421,1.54,7.851,7.851,0,0,0-1.133,4.66,8.776,8.776,0,0,0,1.1,4.951,4.585,4.585,0,0,0,6.9.012,8.287,8.287,0,0,0,1.12-4.8,8.289,8.289,0,0,0-1.12-4.808,3.968,3.968,0,0,0-3.446-1.553" transform="translate(-457.489 -24.212)" fill="#fff"/>
      <path id="Trazado_12718" data-name="Trazado 12718" d="M696.354,36.852h-8.8a3.134,3.134,0,0,0-2.078.572,2.272,2.272,0,0,0-.663,1.814,1.878,1.878,0,0,0,.565,1.491,2.47,2.47,0,0,0,1.68.5h4.711q2.927,0,4.164,1.193a5.354,5.354,0,0,1,1.238,3.976,5.4,5.4,0,0,1-1.428,4.144,6.455,6.455,0,0,1-4.492,1.323h-9.476V48.606h8.912a3.615,3.615,0,0,0,2.143-.478,1.876,1.876,0,0,0,.622-1.584,2.034,2.034,0,0,0-.571-1.628,3.041,3.041,0,0,0-1.952-.485h-4.2a6.131,6.131,0,0,1-4.279-1.262,5.211,5.211,0,0,1-1.353-3.982,5.607,5.607,0,0,1,1.422-4.249,6.424,6.424,0,0,1,4.521-1.342h9.317Z" transform="translate(-516.275 -25.359)" fill="#fff"/>
      <path id="Trazado_12719" data-name="Trazado 12719" d="M133.142,36.852h-8.831a3.163,3.163,0,0,0-2.087.571,2.271,2.271,0,0,0-.664,1.814,1.877,1.877,0,0,0,.567,1.491,2.493,2.493,0,0,0,1.687.5h4.728q2.936,0,4.178,1.192a5.344,5.344,0,0,1,1.243,3.976,5.388,5.388,0,0,1-1.434,4.144,6.492,6.492,0,0,1-4.508,1.323h-9.513V48.606h8.947a3.631,3.631,0,0,0,2.15-.479,1.869,1.869,0,0,0,.624-1.584,2.03,2.03,0,0,0-.572-1.628,3.057,3.057,0,0,0-1.959-.485h-4.218a6.16,6.16,0,0,1-4.294-1.262,5.2,5.2,0,0,1-1.359-3.982,5.589,5.589,0,0,1,1.428-4.25A6.464,6.464,0,0,1,123.79,33.6h9.351Z" transform="translate(-89.313 -25.359)" fill="#fff"/>
      <path id="Trazado_12720" data-name="Trazado 12720" d="M256.142,49.024h6.806a6.074,6.074,0,0,1,4.8,1.945,7.9,7.9,0,0,1,1.723,5.424,9.026,9.026,0,0,1-.359,2.618,7.058,7.058,0,0,1-1.09,2.179,4.955,4.955,0,0,1-2.083,1.7,8.423,8.423,0,0,1-3.223.513h-3.037v5.21h-3.533Zm3.533,3.1v8.194h2.158a3.976,3.976,0,0,0,3.036-.972,4.733,4.733,0,0,0,.893-3.238,4.569,4.569,0,0,0-.819-3.084,3.711,3.711,0,0,0-2.839-.9Z" transform="translate(-194.158 -37.004)" fill="#fff"/>
      <path id="Trazado_12721" data-name="Trazado 12721" d="M326.945,63.459a6.564,6.564,0,0,1-5.027-1.819,7.573,7.573,0,0,1-1.705-5.364,7.583,7.583,0,0,1,1.71-5.37,6.555,6.555,0,0,1,5.021-1.825H332.1v3h-4.674a4.075,4.075,0,0,0-2.585.586,2.881,2.881,0,0,0-.713,2.119H332.1v3H324.13a2.977,2.977,0,0,0,.663,2.112,4.1,4.1,0,0,0,2.61.566h4.7v3Z" transform="translate(-242.724 -37.047)" fill="#fff"/>
      <path id="Trazado_12722" data-name="Trazado 12722" d="M380.939,49.139h5.938a4.173,4.173,0,0,1,2.92.806,3.836,3.836,0,0,1,.836,2.818v2.4h-3.372V53.309a1.654,1.654,0,0,0-.279-1.126,1.891,1.891,0,0,0-1.27-.286h-1.24v11.62h-3.533Z" transform="translate(-288.755 -37.09)" fill="#fff"/>
      <path id="Trazado_12723" data-name="Trazado 12723" d="M206.254,63.459H199.6a6,6,0,0,1-4.246-1.252,5.347,5.347,0,0,1-1.307-4.01V49.082h3.52V57.89a2.843,2.843,0,0,0,.465,1.919,2.62,2.62,0,0,0,1.852.48h2.84V49.082h3.533Z" transform="translate(-147.087 -37.047)" fill="#fff"/>
      <path id="Trazado_12724" data-name="Trazado 12724" d="M752.184,32.161a1.97,1.97,0,0,1,.964.255,1.827,1.827,0,0,1,.725.73,2.006,2.006,0,0,1,.005,1.981,1.853,1.853,0,0,1-.722.731,1.935,1.935,0,0,1-1.946,0,1.855,1.855,0,0,1-.722-.731,2.007,2.007,0,0,1,.005-1.981,1.828,1.828,0,0,1,.726-.73,1.968,1.968,0,0,1,.964-.255m0,.388a1.577,1.577,0,0,0-.773.2,1.47,1.47,0,0,0-.583.587,1.615,1.615,0,0,0-.005,1.594,1.492,1.492,0,0,0,.58.589,1.546,1.546,0,0,0,1.562,0,1.508,1.508,0,0,0,.58-.589,1.611,1.611,0,0,0,0-1.594,1.47,1.47,0,0,0-.584-.587,1.585,1.585,0,0,0-.774-.2M751.3,35.2V33.1h.421q.592,0,.663.005a.809.809,0,0,1,.325.084.528.528,0,0,1,.194.2.594.594,0,0,1,.078.3.558.558,0,0,1-.147.389.663.663,0,0,1-.412.2.522.522,0,0,1,.146.079,1.037,1.037,0,0,1,.14.161c.016.021.066.106.153.256l.245.424h-.52l-.173-.341a1.42,1.42,0,0,0-.291-.433.46.46,0,0,0-.291-.089h-.11V35.2Zm.421-1.194h.171a2.058,2.058,0,0,0,.453-.028.266.266,0,0,0,.139-.1.27.27,0,0,0,.051-.161.259.259,0,0,0-.05-.156.271.271,0,0,0-.142-.1,1.978,1.978,0,0,0-.451-.03h-.171Z" transform="translate(-568.681 -24.275)" fill="#fff"/>
    </g>
  </g>
</svg>
