<svg xmlns="http://www.w3.org/2000/svg" width="21.2" height="30.2" viewBox="0 0 21.2 30.2">
  <g id="img_app" data-name="img app" transform="translate(-1.9 -0.9)">
    <g id="XMLID_1282_">
      <g id="XMLID_1678_">
        <g id="Grupo_12141" data-name="Grupo 12141">
          <g id="Grupo_12140" data-name="Grupo 12140">
            <path id="Trazado_13609" data-name="Trazado 13609" d="M16.5,4h-3a.5.5,0,0,1,0-1h3a.5.5,0,0,1,0,1Z" fill="#2d2e87"/>
            <path id="Trazado_13609_-_Contorno" data-name="Trazado 13609 - Contorno" d="M16.5,4.1h-3a.6.6,0,1,1,0-1.2h3a.6.6,0,1,1,0,1.2Zm-3-1a.4.4,0,0,0,0,.8h3a.4.4,0,0,0,0-.8Z" fill="#2d2e87"/>
          </g>
        </g>
      </g>
      <g id="XMLID_1677_">
        <g id="Grupo_12143" data-name="Grupo 12143">
          <g id="Grupo_12142" data-name="Grupo 12142">
            <path id="Trazado_13610" data-name="Trazado 13610" d="M20.5,31H9.5A2.5,2.5,0,0,1,7,28.5v-7a.5.5,0,0,1,1,0v7A1.5,1.5,0,0,0,9.5,30h11A1.5,1.5,0,0,0,22,28.5v-17a.5.5,0,0,1,1,0v17A2.5,2.5,0,0,1,20.5,31Z" fill="#2d2e87"/>
            <path id="Trazado_13610_-_Contorno" data-name="Trazado 13610 - Contorno" d="M20.5,31.1H9.5a2.6,2.6,0,0,1-2.6-2.6v-7a.6.6,0,1,1,1.2,0v7a1.4,1.4,0,0,0,1.4,1.4h11a1.4,1.4,0,0,0,1.4-1.4v-17a.6.6,0,0,1,1.2,0v17A2.6,2.6,0,0,1,20.5,31.1Zm-13-10a.4.4,0,0,0-.4.4v7a2.4,2.4,0,0,0,2.4,2.4h11a2.4,2.4,0,0,0,2.4-2.4v-17a.4.4,0,0,0-.8,0v17a1.6,1.6,0,0,1-1.6,1.6H9.5a1.6,1.6,0,0,1-1.6-1.6v-7A.4.4,0,0,0,7.5,21.1Z" fill="#2d2e87"/>
          </g>
        </g>
      </g>
      <g id="XMLID_1676_">
        <g id="Grupo_12145" data-name="Grupo 12145">
          <g id="Grupo_12144" data-name="Grupo 12144">
            <path id="Trazado_13611" data-name="Trazado 13611" d="M22.494,12.256a.5.5,0,0,1-.5-.5L22,3.5A1.5,1.5,0,0,0,20.5,2H9.5A1.5,1.5,0,0,0,8,3.5v1a.5.5,0,0,1-1,0v-1A2.5,2.5,0,0,1,9.5,1h11A2.5,2.5,0,0,1,23,3.5l-.006,8.256A.5.5,0,0,1,22.494,12.256Z" fill="#2d2e87"/>
            <path id="Trazado_13611_-_Contorno" data-name="Trazado 13611 - Contorno" d="M22.494,12.356a.6.6,0,0,1-.6-.6L21.9,3.5a1.4,1.4,0,0,0-1.4-1.4H9.5A1.4,1.4,0,0,0,8.1,3.5v1a.6.6,0,1,1-1.2,0v-1A2.6,2.6,0,0,1,9.5.9h11a2.6,2.6,0,0,1,2.6,2.6l-.006,8.256A.6.6,0,0,1,22.494,12.356ZM9.5,1.9h11a1.6,1.6,0,0,1,1.6,1.6l-.006,8.256a.4.4,0,0,0,.8,0L22.9,3.5a2.4,2.4,0,0,0-2.4-2.4H9.5A2.4,2.4,0,0,0,7.1,3.5v1a.4.4,0,0,0,.8,0v-1A1.6,1.6,0,0,1,9.5,1.9Z" fill="#2d2e87"/>
          </g>
        </g>
      </g>
      <g id="XMLID_1669_">
        <g id="Grupo_12147" data-name="Grupo 12147">
          <g id="Grupo_12146" data-name="Grupo 12146">
            <path id="Trazado_13612" data-name="Trazado 13612" d="M14.5,25h-4a.5.5,0,0,1,0-1h4a.5.5,0,0,1,0,1Z" fill="#2d2e87"/>
            <path id="Trazado_13612_-_Contorno" data-name="Trazado 13612 - Contorno" d="M14.5,25.1h-4a.6.6,0,0,1,0-1.2h4a.6.6,0,0,1,0,1.2Zm-4-1a.4.4,0,0,0,0,.8h4a.4.4,0,0,0,0-.8Z" fill="#2d2e87"/>
          </g>
        </g>
      </g>
      <g id="XMLID_1294_">
        <g id="Grupo_12149" data-name="Grupo 12149">
          <g id="Grupo_12148" data-name="Grupo 12148">
            <path id="Trazado_13613" data-name="Trazado 13613" d="M17.5,27h-7a.5.5,0,0,1,0-1h7a.5.5,0,0,1,0,1Z" fill="#2d2e87"/>
            <path id="Trazado_13613_-_Contorno" data-name="Trazado 13613 - Contorno" d="M17.5,27.1h-7a.6.6,0,0,1,0-1.2h7a.6.6,0,0,1,0,1.2Zm-7-1a.4.4,0,1,0,0,.8h7a.4.4,0,0,0,0-.8Z" fill="#2d2e87"/>
          </g>
        </g>
      </g>
      <g id="XMLID_1663_">
        <g id="Grupo_12151" data-name="Grupo 12151">
          <g id="Grupo_12150" data-name="Grupo 12150">
            <path id="Trazado_13614" data-name="Trazado 13614" d="M19.5,23h-9a.5.5,0,0,1,0-1h9a.5.5,0,0,1,0,1Z" fill="#2d2e87"/>
            <path id="Trazado_13614_-_Contorno" data-name="Trazado 13614 - Contorno" d="M19.5,23.1h-9a.6.6,0,0,1,0-1.2h9a.6.6,0,0,1,0,1.2Zm-9-1a.4.4,0,0,0,0,.8h9a.4.4,0,0,0,0-.8Z" fill="#2d2e87"/>
          </g>
        </g>
      </g>
      <g id="XMLID_1647_">
        <g id="Grupo_12153" data-name="Grupo 12153">
          <g id="Grupo_12152" data-name="Grupo 12152">
            <path id="Trazado_13615" data-name="Trazado 13615" d="M9,14a2.5,2.5,0,1,1,2.5-2.5A2.5,2.5,0,0,1,9,14Zm0-4a1.5,1.5,0,1,0,1.5,1.5A1.5,1.5,0,0,0,9,10Z" fill="#2d2e87"/>
            <path id="Trazado_13615_-_Contorno" data-name="Trazado 13615 - Contorno" d="M9,14.1a2.6,2.6,0,1,1,2.6-2.6A2.6,2.6,0,0,1,9,14.1Zm0-5a2.4,2.4,0,1,0,2.4,2.4A2.4,2.4,0,0,0,9,9.1Zm0,4a1.6,1.6,0,1,1,1.6-1.6A1.6,1.6,0,0,1,9,13.1Zm0-3a1.4,1.4,0,1,0,1.4,1.4A1.4,1.4,0,0,0,9,10.1Z" fill="#2d2e87"/>
          </g>
        </g>
      </g>
      <g id="XMLID_1646_">
        <g id="Grupo_12155" data-name="Grupo 12155">
          <g id="Grupo_12154" data-name="Grupo 12154">
            <path id="Trazado_13616" data-name="Trazado 13616" d="M9,20a6.98,6.98,0,0,1-4.739-1.862.5.5,0,0,1-.146-.487A3.477,3.477,0,0,1,7.5,15h3a3.48,3.48,0,0,1,3.386,2.65.5.5,0,0,1-.146.487A6.981,6.981,0,0,1,9,20ZM5.173,17.607a6.1,6.1,0,0,0,7.654,0A2.48,2.48,0,0,0,10.5,16h-3A2.48,2.48,0,0,0,5.173,17.607Z" fill="#2d2e87"/>
            <path id="Trazado_13616_-_Contorno" data-name="Trazado 13616 - Contorno" d="M9,20.1a7.079,7.079,0,0,1-4.807-1.888.6.6,0,0,1-.175-.585A3.577,3.577,0,0,1,7.5,14.9h3a3.58,3.58,0,0,1,3.483,2.726.6.6,0,0,1-.175.584A7.081,7.081,0,0,1,9,20.1Zm-1.5-5a3.378,3.378,0,0,0-3.288,2.575.4.4,0,0,0,.117.39,6.862,6.862,0,0,0,9.343,0,.4.4,0,0,0,.117-.389A3.38,3.38,0,0,0,10.5,15.1ZM9,19.058a6.076,6.076,0,0,1-3.891-1.374l-.055-.045.025-.066A2.6,2.6,0,0,1,7.5,15.9h3a2.6,2.6,0,0,1,2.421,1.672l.025.066-.055.045A6.076,6.076,0,0,1,9,19.058ZM5.293,17.576a6,6,0,0,0,7.415,0A2.4,2.4,0,0,0,10.5,16.1h-3A2.4,2.4,0,0,0,5.293,17.576Z" fill="#2d2e87"/>
          </g>
        </g>
      </g>
      <g id="XMLID_1645_">
        <g id="Grupo_12157" data-name="Grupo 12157">
          <g id="Grupo_12156" data-name="Grupo 12156">
            <path id="Trazado_13617" data-name="Trazado 13617" d="M9,20a7,7,0,1,1,7-7A7.008,7.008,0,0,1,9,20ZM9,7a6,6,0,1,0,6,6A6.006,6.006,0,0,0,9,7Z" fill="#2d2e87"/>
            <path id="Trazado_13617_-_Contorno" data-name="Trazado 13617 - Contorno" d="M9,20.1A7.1,7.1,0,1,1,16.1,13,7.108,7.108,0,0,1,9,20.1Zm0-14A6.9,6.9,0,1,0,15.9,13,6.908,6.908,0,0,0,9,6.1Zm0,13A6.1,6.1,0,1,1,15.1,13,6.107,6.107,0,0,1,9,19.1Zm0-12A5.9,5.9,0,1,0,14.9,13,5.907,5.907,0,0,0,9,7.1Z" fill="#2d2e87"/>
          </g>
        </g>
      </g>
    </g>
  </g>
</svg>
