<svg xmlns="http://www.w3.org/2000/svg" width="32.12" height="21" viewBox="0 0 32.12 21">
  <g id="Img_documento_" data-name="Img documento " transform="translate(-17.25 -32.587)">
    <path id="Trazado_13577" data-name="Trazado 13577" d="M45.526,32.587H21.094a3.848,3.848,0,0,0-3.844,3.844V49.742a3.848,3.848,0,0,0,3.844,3.845H45.526a3.848,3.848,0,0,0,3.844-3.845V36.431A3.848,3.848,0,0,0,45.526,32.587Zm2.642,17.155a2.645,2.645,0,0,1-2.642,2.642H21.094a2.645,2.645,0,0,1-2.642-2.642V36.431a2.645,2.645,0,0,1,2.642-2.642H45.526a2.645,2.645,0,0,1,2.642,2.642Z" fill="#2d2e87"/>
    <path id="Trazado_13578" data-name="Trazado 13578" d="M34.523,45.318a6.126,6.126,0,0,0-3.656,11.041l.019.013.009.006a6.054,6.054,0,0,0,3.4,1.186c.074.006.148.007.225.007s.15,0,.224-.007a6.061,6.061,0,0,0,3.405-1.186l.011-.007.017-.012a6.126,6.126,0,0,0-3.657-11.041Zm.169,11.045a.159.159,0,0,0-.034,0c-.044,0-.088,0-.134,0s-.09,0-.134,0l-.034,0a4.861,4.861,0,0,1-2.525-.8V55.39a2.092,2.092,0,0,1,2.09-2.09H35.13a2.1,2.1,0,0,1,2.093,2.09v.172a4.87,4.87,0,0,1-2.53.8ZM34.527,52.1h-.007a1.563,1.563,0,1,1,.007,0Zm3.792,2.488a3.3,3.3,0,0,0-1.776-2.164,2.766,2.766,0,1,0-4.038,0,3.3,3.3,0,0,0-1.775,2.164A4.874,4.874,0,0,1,29.6,51.446a4.924,4.924,0,1,1,9.848,0A4.872,4.872,0,0,1,38.319,54.584Z" transform="translate(-7.318 -8.357)" fill="#2d2e87"/>
    <path id="Trazado_13579" data-name="Trazado 13579" d="M81.933,50.734H74.2a.6.6,0,1,0,0,1.2h7.73a.6.6,0,0,0,0-1.2Z" transform="translate(-36.993 -11.913)" fill="#2d2e87"/>
    <path id="Trazado_13580" data-name="Trazado 13580" d="M81.933,61.4H74.2a.6.6,0,1,0,0,1.2h7.73a.6.6,0,0,0,0-1.2Z" transform="translate(-36.993 -18.915)" fill="#2d2e87"/>
    <path id="Trazado_13581" data-name="Trazado 13581" d="M81.933,72.067H74.2a.6.6,0,0,0,0,1.2h7.73a.6.6,0,0,0,0-1.2Z" transform="translate(-36.993 -25.917)" fill="#2d2e87"/>
  </g>
</svg>
