<svg xmlns="http://www.w3.org/2000/svg" width="27.66" height="27.394" viewBox="0 0 27.66 27.394">
  <g id="img_formato" data-name="img formato" transform="translate(0.15 -2.343)">
    <path id="Trazado_13603" data-name="Trazado 13603" d="M27.135,5.813,23.9,2.733a.655.655,0,0,0-.487-.24H10.479a.686.686,0,0,0-.685.685v2.1l-4.56.782a.675.675,0,0,0-.548.779l.231,1.349c-1.482.5-3,1.013-4.473,1.541a.679.679,0,0,0-.405.862l2.922,8.123a.4.4,0,0,0,.754-.271l-2.879-8c1.384-.5,2.817-.981,4.218-1.452l1.377,8.029,1.585,9.247a.679.679,0,0,0,.779.55l4.292-.737,3.354-.575L11.4,27.319l-3.978,1.43L4.33,20.157a.4.4,0,1,0-.754.271l3.133,8.714a.677.677,0,0,0,.634.444.663.663,0,0,0,.228-.04l4.1-1.473,9.3-3.344,1.777-.3h3.926a.687.687,0,0,0,.685-.687V6.265a.577.577,0,0,0-.225-.452Zm-1.062.095H24.018c-.1,0-.321,0-.378-.054a.226.226,0,0,1-.029-.138l0-2.16Zm.485,17.715H10.6V15.812a.4.4,0,1,0-.8,0v7.926a.687.687,0,0,0,.685.687H18l-5.052.866-4.167.715-1.563-9.12L5.5,6.833l4.3-.737v7.857a.4.4,0,1,0,.8,0V3.295H22.8l.005,2.422a.954.954,0,0,0,.265.706,1.226,1.226,0,0,0,.89.287h2.593Z" fill="#2d2e87"/>
    <path id="Trazado_13603_-_Contorno" data-name="Trazado 13603 - Contorno" d="M10.479,2.343H23.418a.8.8,0,0,1,.591.281L27.238,5.7a.723.723,0,0,1,.272.561V23.738a.837.837,0,0,1-.835.837H22.761l-1.752.3L7.622,29.688a.81.81,0,0,1-.279.049.829.829,0,0,1-.775-.543L3.435,20.479a.551.551,0,1,1,1.037-.373L7.51,28.557l7.274-2.615L8.821,26.965a.84.84,0,0,1-.137.011.826.826,0,0,1-.816-.683L4.936,9.191c-1.277.43-2.62.885-3.908,1.345L3.856,18.4a.551.551,0,1,1-1.037.373L-.1,10.647a.83.83,0,0,1,.5-1.054c1.405-.5,2.862-1,4.355-1.5l-.21-1.223a.825.825,0,0,1,.67-.952l4.436-.76V3.178A.836.836,0,0,1,10.479,2.343Zm16.2,21.932a.537.537,0,0,0,.535-.537V6.265a.432.432,0,0,0-.178-.342L23.8,2.841a.514.514,0,0,0-.384-.2H10.479a.536.536,0,0,0-.535.535V5.409l-4.685.8a.525.525,0,0,0-.426.606l.253,1.476-.122.041c-1.534.516-3.03,1.022-4.47,1.54a.528.528,0,0,0-.315.671L3.1,18.669a.251.251,0,1,0,.472-.17L.644,10.354.786,10.3c1.389-.5,2.847-.99,4.221-1.453l.166-.056L8.164,26.243a.526.526,0,0,0,.52.434.536.536,0,0,0,.087-.007l7.645-1.311.076.289L7.329,28.941l-3.14-8.733a.251.251,0,1,0-.472.17L6.85,29.092a.527.527,0,0,0,.493.345.513.513,0,0,0,.176-.031l13.427-4.824,1.8-.307ZM10.445,3.145H22.954l.006,2.572a.811.811,0,0,0,.221.6,1.081,1.081,0,0,0,.785.244h2.743V23.773H10.445V15.812a.251.251,0,1,0-.5,0v7.926a.537.537,0,0,0,.535.537H18l.025.3L8.662,26.179,5.324,6.71l4.62-.792v8.034a.251.251,0,1,0,.5,0Zm12.21.3H10.745V13.953a.551.551,0,1,1-1.1,0V6.274L5.67,6.955,8.907,25.833l7.334-1.258H10.479a.837.837,0,0,1-.835-.837V15.812a.551.551,0,1,1,1.1,0v7.661H26.409V6.859H23.966a1.349,1.349,0,0,1-1-.331,1.1,1.1,0,0,1-.31-.812Zm.8-.24,2.992,2.853h-2.47c-.248,0-.372-.028-.443-.1a.338.338,0,0,1-.073-.244ZM25.7,5.758,23.758,3.907l0,1.808c0,.011,0,.021,0,.029a1.2,1.2,0,0,0,.215.014H25.7Z" fill="#2d2e87"/>
    <path id="Trazado_13604" data-name="Trazado 13604" d="M234.43,111.85a.4.4,0,0,0,.4.4H246.29a.4.4,0,0,0,0-.8H234.831A.4.4,0,0,0,234.43,111.85Z" transform="translate(-221.903 -103.134)" fill="#2d2e87"/>
    <path id="Trazado_13604_-_Contorno" data-name="Trazado 13604 - Contorno" d="M234.831,111.3H246.29a.551.551,0,0,1,0,1.1H234.831a.551.551,0,0,1,0-1.1Zm11.459.8a.251.251,0,0,0,0-.5H234.831a.251.251,0,1,0,0,.5Z" transform="translate(-221.903 -103.134)" fill="#2d2e87"/>
    <path id="Trazado_13605" data-name="Trazado 13605" d="M246.29,164.731H234.831a.4.4,0,1,0,0,.8H246.29a.4.4,0,1,0,0-.8Z" transform="translate(-221.903 -153.568)" fill="#2d2e87"/>
    <path id="Trazado_13605_-_Contorno" data-name="Trazado 13605 - Contorno" d="M234.831,164.581H246.29a.551.551,0,1,1,0,1.1H234.831a.551.551,0,1,1,0-1.1Zm11.459.8a.251.251,0,1,0,0-.5H234.831a.251.251,0,1,0,0,.5Z" transform="translate(-221.903 -153.568)" fill="#2d2e87"/>
    <path id="Trazado_13606" data-name="Trazado 13606" d="M246.29,218.013H234.831a.4.4,0,1,0,0,.8H246.29a.4.4,0,0,0,0-.8Z" transform="translate(-221.903 -204.003)" fill="#2d2e87"/>
    <path id="Trazado_13606_-_Contorno" data-name="Trazado 13606 - Contorno" d="M234.831,217.863H246.29a.551.551,0,0,1,0,1.1H234.831a.551.551,0,0,1,0-1.1Zm11.459.8a.251.251,0,0,0,0-.5H234.831a.251.251,0,1,0,0,.5Z" transform="translate(-221.903 -204.003)" fill="#2d2e87"/>
    <path id="Trazado_13607" data-name="Trazado 13607" d="M246.29,271.3H234.831a.4.4,0,1,0,0,.8H246.29a.4.4,0,0,0,0-.8Z" transform="translate(-221.903 -254.438)" fill="#2d2e87"/>
    <path id="Trazado_13607_-_Contorno" data-name="Trazado 13607 - Contorno" d="M234.831,271.145H246.29a.551.551,0,1,1,0,1.1H234.831a.551.551,0,1,1,0-1.1Zm11.459.8a.251.251,0,0,0,0-.5H234.831a.251.251,0,1,0,0,.5Z" transform="translate(-221.903 -254.438)" fill="#2d2e87"/>
    <path id="Trazado_13608" data-name="Trazado 13608" d="M246.29,324.578H234.831a.4.4,0,1,0,0,.8H246.29a.4.4,0,0,0,0-.8Z" transform="translate(-221.903 -304.873)" fill="#2d2e87"/>
    <path id="Trazado_13608_-_Contorno" data-name="Trazado 13608 - Contorno" d="M234.831,324.428H246.29a.551.551,0,1,1,0,1.1H234.831a.551.551,0,1,1,0-1.1Zm11.459.8a.251.251,0,0,0,0-.5H234.831a.251.251,0,1,0,0,.5Z" transform="translate(-221.903 -304.873)" fill="#2d2e87"/>
  </g>
</svg>
