<svg xmlns="http://www.w3.org/2000/svg" width="32.331" height="28.805" viewBox="0 0 32.331 28.805">
  <g id="Icono_KUPI" data-name="Icono KUPI" transform="translate(0 0)">
    <g id="Grupo_13688" data-name="Grupo 13688" transform="translate(0 0)">
      <path id="Trazado_21453" data-name="Trazado 21453" d="M29.485,6.3a2.835,2.835,0,0,1,2.846,2.543V25.582a3.528,3.528,0,0,1-3.283,3.223H3.355A3.5,3.5,0,0,1,0,25.518V4.705A2.77,2.77,0,0,1,2.474,2.1l14.433,0c1.9-.569,3.726-1.466,5.629-2.03,1.347-.4,1.09,1.221,1.663,2,1.52.2,3.116-.4,4.374.709,1.125.989.912,2.158.913,3.526M9.424,6.3H24.267L22.53,1.483Zm3.66-2.914H2.477a2.259,2.259,0,0,0-.578.3,1.474,1.474,0,0,0,.651,2.6,11.9,11.9,0,0,0,3.181-.129c2.227-.651,5.044-1.734,7.2-2.627.1-.042.184.042.149-.152M28.2,6.3V4.572a1.781,1.781,0,0,0-1.186-1.186H24.674L25.724,6.3Zm2.779,8.472V8.706a1.485,1.485,0,0,0-1.186-1.051c-9.2-.065-18.434.131-27.622-.1l-.811-.307V25.786c0,.029.168.483.2.546a2.327,2.327,0,0,0,2,1.186l25.419,0a2.5,2.5,0,0,0,1.65-.922,5.7,5.7,0,0,0,.35-.805V20.33H27.757a4.061,4.061,0,0,1-1.288-.542,2.816,2.816,0,0,1,.217-4.6,3.469,3.469,0,0,1,1.071-.42Zm0,1.356A16.185,16.185,0,0,0,28.1,16.06a1.492,1.492,0,0,0-.622,2.792,4.064,4.064,0,0,0,.419.191h3.084Z" transform="translate(0 -0.001)" fill="#2d2e87"/>
      <path id="Trazado_21459" data-name="Trazado 21459" d="M127.216,154.739v11.149c0,.179.33.354.507.374a11.988,11.988,0,0,0,1.833,0c.351-.041.413-.179.442-.507.1-1.078-.08-2.3,0-3.39.432-.788,1.2.666,1.45,1.054.968,1.474,1.812,3.043,2.75,4.536h-7.489l-.594-.084a2.729,2.729,0,0,1-2.053-2.082c.109-2.777-.249-5.834-.033-8.58a2.8,2.8,0,0,1,3.188-2.471" transform="translate(-115.556 -144.237)" fill="#2d2e87"/>
      <path id="Trazado_21460" data-name="Trazado 21460" d="M209.58,154.948a2.858,2.858,0,0,1,2.333,2.209c-.194,2.794.28,5.989.005,8.737a2.4,2.4,0,0,1-1.218,1.8l-4.409-7.02c-.012-.132.317-.5.433-.615.988-1.027,2.319-2.047,3.2-3.14.2-.247-.028-.315-.271-.342a7.267,7.267,0,0,0-2.591.191l-3.341,3.4v-4.3c0-.334-.453-.711-.678-.915Z" transform="translate(-189.278 -144.446)" fill="#2d2e87"/>
      <path id="Trazado_21461" data-name="Trazado 21461" d="M417.327,250.373h-1.288V249.12l.11-.1c.185.163,1.177-.121,1.177.1Z" transform="translate(-387.841 -232.145)" fill="#2d2e87"/>
    </g>
  </g>
</svg>
