<svg xmlns="http://www.w3.org/2000/svg" width="42.084" height="36.988" viewBox="0 0 42.084 36.988">
  <g id="Icono_Vacío" transform="translate(0 -31)">
    <g id="Grupo_7097" data-name="Grupo 7097" transform="translate(0 31)">
      <g id="Grupo_7096" data-name="Grupo 7096">
        <path id="Trazado_6421" data-name="Trazado 6421" d="M42.055,54.158,37.123,31.965A1.233,1.233,0,0,0,35.92,31H6.165a1.233,1.233,0,0,0-1.2.965L.029,54.158A1.281,1.281,0,0,0,0,54.426V66.755a1.233,1.233,0,0,0,1.233,1.233H40.852a1.233,1.233,0,0,0,1.233-1.233V54.426A1.406,1.406,0,0,0,42.055,54.158ZM7.154,33.466H34.931l4.384,19.727h-6.8A3.679,3.679,0,0,0,29.2,55.238L27.76,58.125H14.324l-1.444-2.887a3.679,3.679,0,0,0-3.308-2.045H2.77ZM39.619,65.522H2.466V55.659H9.572a1.226,1.226,0,0,1,1.1.682l1.784,3.569a1.233,1.233,0,0,0,1.1.681h14.96a1.233,1.233,0,0,0,1.1-.682l1.784-3.569a1.226,1.226,0,0,1,1.1-.682h7.107Z" transform="translate(0 -31)" fill="#bcb9b7"/>
      </g>
    </g>
  </g>
</svg>
