<svg xmlns="http://www.w3.org/2000/svg" width="29.647" height="29.647" viewBox="0 0 29.647 29.647">
  <g id="Icono_Compras_en_comercio" data-name="Icono_Compras en comercio" transform="translate(0 0)">
    <g id="Page-1_3_" transform="translate(0 0)">
      <g id="_x30_04---Store">
        <path id="Shape_10_" d="M.988,29.647H28.659a.988.988,0,0,0,.988-.988v-.988a.988.988,0,0,0-.988-.988h-.988V11.155a2.471,2.471,0,0,0,1.482-2.261V7.352a2.458,2.458,0,0,0-.227-1.038L26.673,1.435A2.478,2.478,0,0,0,24.429,0H5.218A2.478,2.478,0,0,0,2.975,1.435L.721,6.316A2.458,2.458,0,0,0,.494,7.354v1.54a2.471,2.471,0,0,0,1.482,2.261V26.683H.988A.988.988,0,0,0,0,27.671v.988a.988.988,0,0,0,.988.988ZM28.165,8.894a1.482,1.482,0,1,1-2.965,0V7.412h2.965ZM24.429.988a1.488,1.488,0,0,1,1.346.861l2.111,4.574H25.07L23.4.988Zm-2.064,0,1.672,5.435H21.149L19.892.988Zm1.847,6.424V8.894a1.482,1.482,0,1,1-2.965,0V7.412ZM18.876.988,20.13,6.424H17.258L16.84.988Zm1.384,6.424V8.894a1.482,1.482,0,1,1-2.965,0V7.412ZM13.8.988h2.05l.418,5.435H13.381Zm-.458,6.424h2.965V8.894a1.482,1.482,0,0,1-2.965,0Zm1.482,3.953a2.462,2.462,0,0,0,1.977-1,2.448,2.448,0,0,0,3.953,0,2.448,2.448,0,0,0,3.953,0,2.462,2.462,0,0,0,1.977,1V26.683h-.988V14.824a1.482,1.482,0,0,0-1.482-1.482H19.271a1.482,1.482,0,0,0-1.482,1.482V26.683H2.965V11.365a2.462,2.462,0,0,0,1.977-1,2.448,2.448,0,0,0,3.953,0,2.448,2.448,0,0,0,3.953,0,2.461,2.461,0,0,0,1.976,1Zm3.953,8.894V14.824a.494.494,0,0,1,.494-.494h4.941a.494.494,0,0,1,.494.494v5.435H18.777Zm5.93.988v5.435h-5.93V21.247ZM5.435,8.894V7.412H8.4V8.894a1.482,1.482,0,1,1-2.965,0Zm3.953,0V7.412h2.965V8.894a1.482,1.482,0,1,1-2.965,0ZM12.808.988,12.39,6.424H9.515L10.772.988Zm-3.052,0L8.5,6.424H5.61L7.282.988ZM3.872,1.85A1.488,1.488,0,0,1,5.218.988H6.249L4.577,6.424H1.76ZM1.482,8.894V7.412H4.447V8.894a1.482,1.482,0,1,1-2.965,0ZM.988,27.671H28.659v.988H.988Z" transform="translate(0 0)" fill="#2d2e87"/>
        <path id="Shape_9_" d="M81.283,275.812v8.894a1.482,1.482,0,0,0,1.482,1.482h9.882a1.482,1.482,0,0,0,1.482-1.482v-8.894a1.482,1.482,0,0,0-1.482-1.482H82.765A1.482,1.482,0,0,0,81.283,275.812Zm11.859,0v8.894a.494.494,0,0,1-.494.494H82.765a.494.494,0,0,1-.494-.494v-8.894a.494.494,0,0,1,.494-.494h9.882A.494.494,0,0,1,93.142,275.812Z" transform="translate(-77.33 -260.989)" fill="#2d2e87"/>
        <path id="Path_18_" d="M174.7,321.4a.988.988,0,0,1-.988-.988.494.494,0,0,0-.988,0,1.977,1.977,0,0,0,1.482,1.906v.07a.494.494,0,1,0,.988,0v-.07a1.973,1.973,0,0,0-.494-3.883.988.988,0,1,1,.988-.988.494.494,0,0,0,.988,0,1.977,1.977,0,0,0-1.482-1.906v-.07a.494.494,0,1,0-.988,0v.07a1.973,1.973,0,0,0,.494,3.883.988.988,0,0,1,0,1.977Z" transform="translate(-164.327 -299.654)" fill="#2d2e87" fill-rule="evenodd"/>
      </g>
    </g>
  </g>
</svg>
