<svg xmlns="http://www.w3.org/2000/svg" width="40.803" height="25.936" viewBox="0 0 40.803 25.936">
  <path id="Icono_Tarjetas_de_regalo" data-name="Icono_Tarjetas de regalo" d="M37.242,93.27H3.563A3.564,3.564,0,0,0,0,96.827v18.82a3.565,3.565,0,0,0,3.563,3.559H37.242a3.564,3.564,0,0,0,3.561-3.559V96.827A3.563,3.563,0,0,0,37.242,93.27ZM14.293,103.955a2.675,2.675,0,1,1-2.675-2.67A2.675,2.675,0,0,1,14.293,103.955ZM4.266,102.063a2.319,2.319,0,0,0,1.488.539H7.908a3.934,3.934,0,0,0,.63,3.817l-2.685,1.417a.754.754,0,0,1-.976-.191,2.33,2.33,0,0,1-.611-1.7v-3.883Zm.451-1.617a1.569,1.569,0,0,1,.159-.18.759.759,0,0,1,.978-.192l2.372,1.254H5.754a1.052,1.052,0,0,1-1.037-.881ZM7.146,108.6l2.415-1.274a3.919,3.919,0,0,0,1.031.443l-2.317,4.009-.292-1.15a.637.637,0,0,0-.791-.457l-1.14.322Zm4.472-.06,1.285,2.223v7.173h-2.57v-7.173Zm1.026-.772a3.92,3.92,0,0,0,1.031-.443l2.416,1.276,1.094,1.892-1.143-.323a.637.637,0,0,0-.791.457l-.291,1.148Zm4.736.072L14.7,106.419a3.934,3.934,0,0,0,.63-3.817h2.154a2.314,2.314,0,0,0,1.486-.539v3.883a2.329,2.329,0,0,1-.612,1.7A.753.753,0,0,1,17.381,107.835Zm.1-6.508H15.011l2.369-1.253a.757.757,0,0,1,.978.19,1.662,1.662,0,0,1,.16.182A1.052,1.052,0,0,1,17.483,101.327Zm-5.865-1.318a3.943,3.943,0,0,0-1.285.215v-5.68H12.9v5.68A3.951,3.951,0,0,0,11.619,100.009ZM1.275,115.648V96.827a2.287,2.287,0,0,1,2.288-2.282h5.5v5.779l-2.61-1.38a2.022,2.022,0,0,0-2.46.4,3.587,3.587,0,0,0-1,2.614v3.982a3.584,3.584,0,0,0,1,2.612,2.177,2.177,0,0,0,1.33.65l-1.157,2a.638.638,0,0,0,.725.933l2.022-.571.516,2.035a.638.638,0,0,0,.531.475.659.659,0,0,0,.088.006.636.636,0,0,0,.551-.319l.464-.8v4.967h-5.5a2.289,2.289,0,0,1-2.288-2.284Zm38.253,0a2.288,2.288,0,0,1-2.286,2.284H14.178v-4.967l.464.8a.637.637,0,0,0,.551.319.542.542,0,0,0,.088-.006.637.637,0,0,0,.53-.475l.515-2.034,2.024.571a.638.638,0,0,0,.725-.933l-1.16-2.006a2.179,2.179,0,0,0,1.331-.645,3.584,3.584,0,0,0,1-2.612v-3.982a3.587,3.587,0,0,0-1-2.614,2.044,2.044,0,0,0-2.462-.4l-2.607,1.379V94.546H37.242a2.286,2.286,0,0,1,2.286,2.282v18.82ZM27.71,101.71a2.005,2.005,0,0,1,1.568-1.879v-.406a.638.638,0,1,1,1.275,0v.422a2.214,2.214,0,0,1,1.371,1.2.637.637,0,0,1-1.16.528.934.934,0,0,0-.847-.547c-.6,0-.929.355-.931.689s.347.546.909.552a1.932,1.932,0,0,1,2.169,1.831,2.005,2.005,0,0,1-1.571,1.88v.406a.638.638,0,1,1-1.275,0v-.422a2.21,2.21,0,0,1-1.371-1.2.638.638,0,0,1,1.162-.526.932.932,0,0,0,.847.546c.6,0,.932-.355.933-.689s-.346-.544-.908-.55a1.935,1.935,0,0,1-2.172-1.835Zm9.824,8.441a.637.637,0,0,1-.638.638H22.878a.638.638,0,1,1,0-1.275H36.9A.638.638,0,0,1,37.534,110.152Zm0,2.9a.637.637,0,0,1-.638.638H22.878a.638.638,0,0,1,0-1.275H36.9A.638.638,0,0,1,37.534,113.048Z" transform="translate(0 -93.27)" fill="#2d2e87"/>
</svg>
